<svg xmlns="http://www.w3.org/2000/svg" width="3840" height="2160" viewBox="0 0 3840 2160" version="1.1"><path d="M 0 1080 L 0 2160 275.250 2159.850 C 426.637 2159.768, 544.200 2159.350, 536.500 2158.922 C 465.433 2154.971, 386.852 2133.158, 322.315 2099.467 C 272.422 2073.422, 230.389 2042.539, 190.435 2002.572 C 168.313 1980.443, 156.018 1966.481, 140.406 1945.760 C 72.242 1855.294, 35.939 1752.560, 31.387 1637.250 L 30.706 1620 165.707 1620 L 300.708 1620 301.392 1632.750 C 304.352 1687.893, 322.825 1738.963, 355.653 1782.756 C 365.127 1795.395, 390.002 1821.119, 401.524 1830.193 C 410.257 1837.071, 428.207 1849.355, 437.533 1854.836 C 454.906 1865.048, 487.174 1877.675, 509.207 1882.884 C 521.554 1885.803, 543.333 1888.778, 558.250 1889.583 L 571 1890.271 571 2025.135 L 571 2160 624.786 2160 L 678.573 2160 679.753 2145.224 C 683.443 2099.020, 699.394 2058.821, 728.053 2023.500 C 735.080 2014.840, 752.467 1997.628, 760.500 1991.380 C 810.243 1952.691, 870.678 1937.157, 931.350 1947.465 C 1002.430 1959.541, 1062.100 2005.858, 1092.047 2072.200 C 1097.331 2083.906, 1103.191 2101.669, 1105.838 2114 C 1108.077 2124.433, 1110.997 2147.768, 1110.999 2155.250 L 1111 2160 1507.750 2159.889 C 1842.440 2159.795, 1902.608 2159.571, 1892.403 2158.456 C 1871.260 2156.147, 1856.774 2152.949, 1835.819 2145.963 C 1738.968 2113.677, 1669 2030.315, 1654.026 1929.369 C 1643.355 1857.432, 1661.572 1786.187, 1705.751 1727.081 C 1716.050 1713.302, 1740.609 1688.320, 1754 1678 C 1796.152 1645.516, 1847.109 1625.096, 1895.250 1621.397 C 1900.063 1621.027, 1904 1620.434, 1904 1620.078 C 1904 1619.723, 1898.461 1618.902, 1891.692 1618.253 C 1852.451 1614.495, 1807.297 1598.421, 1774.554 1576.556 C 1755.657 1563.936, 1745.888 1555.966, 1730.414 1540.541 C 1695.056 1505.298, 1671.901 1464.776, 1659.458 1416.369 C 1655.797 1402.127, 1652.032 1378.797, 1651.975 1370 C 1651.922 1361.921, 1650.390 1365.847, 1649.634 1376 C 1649.285 1380.675, 1648.143 1389.461, 1647.095 1395.525 C 1626.461 1514.934, 1528.892 1605.986, 1408.241 1618.427 C 1369.168 1622.455, 1333.395 1618.490, 1295.819 1605.963 C 1253.564 1591.877, 1217.813 1569.309, 1186.802 1537.144 C 1147.055 1495.917, 1122.714 1446.425, 1113.871 1388.856 C 1110.879 1369.378, 1110.587 1330.386, 1113.303 1313 C 1121.170 1262.631, 1140.383 1218.168, 1170.341 1181 C 1178.994 1170.265, 1204.022 1145.508, 1214 1137.814 C 1252.363 1108.232, 1293.743 1090.471, 1342 1082.873 C 1360.872 1079.902, 1398.804 1079.634, 1417 1082.344 C 1466.356 1089.695, 1509.024 1107.772, 1548 1137.845 C 1558.059 1145.606, 1582.109 1169.385, 1590.635 1180 C 1627.037 1225.320, 1647.135 1278.213, 1650.575 1337.750 L 1651.283 1350 1718.889 1350 L 1786.494 1350 1719 1282.500 L 1651.506 1215 1719.001 1147.499 L 1786.496 1079.998 1853.996 1147.498 L 1921.496 1214.998 1854.001 1282.499 L 1786.506 1350 1921.500 1350 L 2056.494 1350 1989 1282.500 L 1921.506 1215 1989.003 1147.473 L 2056.500 1079.945 2123.942 1147.528 L 2191.384 1215.111 2123.945 1282.555 L 2056.506 1350 2123.599 1350 L 2190.692 1350 2191.358 1336.250 C 2193.204 1298.129, 2203.916 1258.776, 2221.641 1225 C 2228.998 1210.980, 2243.932 1188.806, 2254.305 1176.500 C 2322.382 1095.740, 2430.121 1062.029, 2532 1089.613 C 2566.150 1098.859, 2598.764 1115.375, 2628.724 1138.596 C 2649.547 1154.734, 2675.597 1183.987, 2690.259 1207.695 C 2728.537 1269.591, 2740.419 1344.855, 2722.987 1415 C 2695.738 1524.643, 2601.827 1606.452, 2489.500 1618.395 C 2477.824 1619.637, 2489.473 1619.789, 2603.902 1619.889 L 2731.304 1620 2730.620 1633.750 C 2729.317 1659.927, 2723.695 1688.102, 2715.004 1712.006 C 2705.892 1737.070, 2689.418 1766.596, 2672.604 1788 C 2663.959 1799.004, 2635.958 1826.430, 2625 1834.626 C 2583.210 1865.884, 2539.633 1883.067, 2488.351 1888.509 C 2389.756 1898.972, 2291.406 1852.125, 2236.404 1768.500 C 2209.932 1728.253, 2193.757 1678.020, 2192.773 1633 L 2192.500 1620.500 2318.500 1620 C 2392.149 1619.708, 2440.602 1619.169, 2435.118 1618.704 C 2391.962 1615.043, 2345.945 1598.321, 2308.854 1572.819 C 2241.735 1526.674, 2198.848 1453.375, 2192.097 1373.269 C 2191.192 1362.526, 2190.558 1363.897, 2189.122 1379.702 C 2186.443 1409.192, 2176.265 1443.654, 2162.040 1471.398 C 2125.854 1541.979, 2062.671 1592.558, 1987 1611.521 C 1972.443 1615.169, 1948.885 1618.947, 1940 1619.058 C 1932.172 1619.156, 1936.417 1620.547, 1947 1621.353 C 2007.119 1625.928, 2070.860 1656.766, 2114.871 1702.569 C 2135.800 1724.351, 2150.495 1745.440, 2163.597 1772.500 C 2172.730 1791.361, 2177.152 1803.361, 2181.999 1822.435 C 2195.546 1875.744, 2193.595 1927.374, 2176.121 1978.021 C 2162.578 2017.272, 2141.437 2050.751, 2111.072 2081.031 C 2065.769 2126.208, 2007.323 2153.451, 1944 2158.907 C 1938.732 2159.360, 2021.597 2159.720, 2130 2159.714 C 2237.525 2159.708, 2320.961 2159.382, 2315.412 2158.988 C 2256.098 2154.783, 2206.535 2111.056, 2193.841 2051.734 C 2190.876 2037.875, 2190.613 2010.597, 2193.325 1998.232 C 2203.946 1949.815, 2237.640 1911.641, 2283 1896.634 C 2310.427 1887.559, 2341.935 1887.545, 2368.998 1896.595 C 2402.951 1907.950, 2430.400 1931.985, 2446.906 1964.813 C 2453.828 1978.580, 2460 2000.482, 2460 2011.277 C 2460 2013.508, 2460.182 2015.146, 2460.404 2014.917 C 2460.627 2014.687, 2461.724 2009.100, 2462.842 2002.500 C 2466.227 1982.530, 2474.343 1962.785, 2485.854 1946.522 C 2497.702 1929.781, 2517.446 1912.844, 2536.008 1903.496 C 2545.313 1898.810, 2561.808 1893.497, 2572.926 1891.605 C 2585.084 1889.535, 2606.788 1889.522, 2619.074 1891.576 C 2629.704 1893.354, 2646.522 1898.738, 2655.500 1903.236 C 2693.632 1922.344, 2720.479 1957.909, 2728.547 2000 C 2731.072 2013.177, 2731.131 2038.318, 2728.664 2050 C 2719.842 2091.766, 2693.214 2126.759, 2655.992 2145.504 C 2646.687 2150.190, 2630.192 2155.503, 2619.074 2157.395 C 2606.808 2159.483, 2585.178 2159.482, 2572.926 2157.392 C 2531.223 2150.280, 2495.610 2124.081, 2476.153 2086.203 C 2468.412 2071.134, 2462 2049.395, 2462 2038.223 C 2462 2032.392, 2460.833 2035.332, 2459.426 2044.711 C 2457.420 2058.079, 2453.542 2070.253, 2447.058 2083.540 C 2425.814 2127.074, 2384.324 2155.257, 2336 2158.978 C 2330.775 2159.380, 2417.216 2159.775, 2528.092 2159.855 L 2729.684 2160 2730.308 2140.750 C 2733.519 2041.691, 2763.970 1946.463, 2819.442 1862 C 2851.643 1812.970, 2892.413 1768.998, 2939.989 1731.985 C 2956.306 1719.290, 2985.746 1699.571, 3003 1689.781 C 3058.107 1658.511, 3118.587 1636.916, 3180 1626.583 C 3200.112 1623.200, 3224.904 1620.242, 3237.259 1619.753 C 3240.692 1619.617, 3128.075 1619.279, 2987 1619.003 L 2730.500 1618.500 2730.724 1607.500 C 2732.193 1535.405, 2768.613 1460.972, 2826 1412.778 C 2869.047 1376.626, 2922.071 1354.583, 2977.500 1349.796 L 2992.500 1348.500 2981.451 1347.858 C 2929.910 1344.864, 2880.083 1326.384, 2837.246 1294.376 C 2821.509 1282.618, 2795.831 1256.965, 2784.599 1241.781 C 2773.665 1227, 2763.129 1209.678, 2756.403 1195.424 C 2742.799 1166.594, 2733.353 1131.322, 2731.519 1102.500 C 2731.204 1097.550, 2730.706 1090.463, 2730.413 1086.750 L 2729.879 1080 2999.068 1080 L 3268.257 1080 3267.570 1092.250 C 3264.481 1147.309, 3246.233 1197.678, 3213.404 1241.754 C 3203.416 1255.164, 3178.057 1281.037, 3165 1291.138 C 3125.210 1321.920, 3080.692 1340.441, 3032.030 1346.458 C 3025.171 1347.306, 3016.396 1348.081, 3012.530 1348.180 C 3006.796 1348.327, 3006.422 1348.423, 3010.500 1348.699 C 3051.743 1351.493, 3084.997 1360.020, 3118.500 1376.394 C 3164.315 1398.786, 3201.461 1432.152, 3229.392 1476 C 3235.785 1486.037, 3249.025 1513.143, 3253.502 1525.360 C 3261.123 1546.156, 3266.479 1569.789, 3269.058 1594 C 3269.673 1599.775, 3270.414 1626.594, 3270.704 1653.597 L 3271.232 1702.695 3250.866 1703.294 C 3221.461 1704.160, 3192.517 1708.271, 3160.644 1716.109 C 3062.435 1740.262, 2975.450 1796.756, 2910.608 1878.500 C 2899.221 1892.855, 2881.277 1919.902, 2871.465 1937.500 C 2836.350 2000.482, 2816.722 2070.777, 2814.294 2142.250 L 2813.690 2160 2828.345 2160 L 2843 2160 2843.002 2151.750 C 2843.008 2132.048, 2846.749 2098.351, 2851.555 2074.706 C 2874.371 1962.456, 2941.537 1863.929, 3038.384 1800.643 C 3067.894 1781.359, 3106.053 1763.100, 3138.868 1752.562 C 3175.393 1740.833, 3215.308 1733.468, 3248 1732.425 C 3256.525 1732.154, 3265.188 1731.765, 3267.250 1731.561 L 3271 1731.190 3271 1795.467 L 3271 1859.743 3257.750 1860.414 C 3171.715 1864.767, 3091.792 1905.272, 3038.500 1971.527 C 3019.824 1994.746, 3000.130 2029.142, 2990.517 2055.327 C 2979.726 2084.722, 2973.593 2114.882, 2972.333 2144.750 L 2971.690 2160 2986.199 2160 L 3000.708 2160 3001.392 2147.250 C 3003.812 2102.178, 3017.073 2058.290, 3039.542 2021 C 3086.407 1943.220, 3167.573 1894.360, 3258.101 1889.432 L 3270.702 1888.746 3271.348 1875.269 C 3274.126 1817.348, 3296.459 1760.065, 3333.247 1716.500 C 3378.446 1662.973, 3437.828 1630.604, 3507.498 1621.514 C 3521.644 1619.668, 3552.031 1619.410, 3567.701 1621.002 C 3630.595 1627.393, 3688.486 1655.713, 3733.515 1702.118 C 3772.606 1742.402, 3796.679 1791.370, 3806.214 1850 C 3808.392 1863.390, 3808.413 1864.698, 3808.745 2010.750 L 3809.081 2158 3540.040 2158 L 3271 2158 3271 2115.355 L 3271 2072.711 3264.601 2073.308 C 3222.249 2077.263, 3189.515 2110.112, 3185.435 2152.752 L 3184.741 2160.003 3512.621 2159.752 L 3840.500 2159.500 3840.750 1079.750 L 3841.001 -0 3823.521 -0 L 3806.041 0 3805.708 282.750 C 3805.376 565.449, 3805.375 565.502, 3803.255 578.124 C 3793.388 636.873, 3769.396 684.944, 3729.522 725.863 C 3706.167 749.829, 3683.522 766.262, 3653.500 781.029 C 3629.497 792.836, 3604.903 800.603, 3577 805.190 C 3565.403 807.097, 3559.694 807.408, 3536.500 807.401 C 3512.009 807.393, 3508.013 807.146, 3493.500 804.742 C 3448.775 797.335, 3408.927 780.284, 3372.364 752.906 C 3361.092 744.466, 3333.149 717.142, 3324.396 706 C 3294.343 667.744, 3274.822 621.593, 3268.141 573 C 3267.600 569.069, 3267.246 661.736, 3267.244 807.500 C 3267.243 956.858, 3267.589 1046.218, 3268.156 1042.500 C 3274.643 999.945, 3288.426 964.023, 3311.513 929.500 C 3374.848 834.794, 3490.520 789.780, 3600.393 817.082 C 3658.264 831.462, 3709.851 864.500, 3747.041 911 C 3755.876 922.047, 3769.596 943.496, 3776.339 956.802 C 3794.055 991.763, 3803.172 1026.175, 3805.599 1067.250 C 3806.174 1076.974, 3806.053 1079, 3804.897 1078.999 C 3802.155 1078.996, 3782.285 1073.876, 3769.765 1069.946 C 3703.130 1049.029, 3640.125 1003.201, 3595.926 943.500 C 3569.346 907.596, 3547.826 861.787, 3538.857 822.019 C 3537.615 816.509, 3536.296 812, 3535.927 812 C 3535.558 812, 3534.984 813.688, 3534.653 815.750 C 3533.546 822.638, 3527.241 844.366, 3522.536 857.506 C 3516.596 874.096, 3501.469 904.842, 3491.189 921.220 C 3442.693 998.478, 3364.272 1055.805, 3278.758 1076.511 L 3268.554 1078.982 2986.961 1079.010 C 2707.448 1079.039, 2705.262 1079.024, 2691.035 1076.970 C 2633.682 1068.692, 2581.224 1042.242, 2539.439 1000.534 C 2517.969 979.104, 2503.127 958.725, 2489.573 932.068 C 2473.365 900.192, 2464.727 869.679, 2460.677 830 C 2460.330 826.599, 2460.316 826.615, 2460.160 830.576 C 2459.649 843.604, 2454.509 870.825, 2449.319 888 C 2432.343 944.168, 2395.326 995.649, 2347.412 1029.723 C 2302.328 1061.785, 2250.928 1078.429, 2192.250 1079.967 C 2191.253 1079.993, 2191 1025.351, 2191 810 L 2191 540 2197.528 540 C 2207.900 540, 2232.251 542.849, 2245.135 545.569 C 2298.021 556.735, 2343.527 581.365, 2381.581 619.419 C 2425.681 663.519, 2452.274 719.224, 2459.196 782 L 2460.464 793.500 2461.175 785 C 2466.457 721.842, 2496.346 660.242, 2543.604 615.113 C 2580.758 579.633, 2625.204 556.254, 2675.769 545.593 C 2703.176 539.814, 2692.670 540, 2991.522 540 C 3240.692 540, 3265.842 539.855, 3266.393 538.418 C 3266.727 537.548, 3267 416.048, 3267 268.418 L 3267 0 2937.250 0.140 C 2755.887 0.217, 2610.926 0.608, 2615.112 1.009 C 2657.930 5.110, 2698.483 32.242, 2718.478 70.165 C 2721.045 75.033, 2724.218 81.600, 2725.530 84.758 L 2727.915 90.500 2727.958 70.250 L 2728 50 2931.750 50.017 C 3157.893 50.037, 3142.195 49.556, 3156.807 56.903 C 3171.805 64.444, 3183.698 78.136, 3188.595 93.500 C 3196.094 117.029, 3190.342 140.969, 3173.095 158 C 3164.970 166.024, 3157.859 170.343, 3146.500 174.152 L 3139.500 176.500 2933.860 176.764 L 2728.221 177.028 2725.944 182.764 C 2719.110 199.979, 2709.356 214.647, 2695.507 228.536 C 2681.431 242.653, 2664.274 253.518, 2645.280 260.341 C 2637.039 263.302, 2619.640 267, 2613.951 267 C 2611.843 267, 2609.840 267.450, 2609.500 268 C 2609.148 268.569, 2610.004 269, 2611.483 269 C 2612.914 269, 2617.553 269.709, 2621.792 270.576 C 2667.798 279.984, 2706.790 314.810, 2721.352 359.500 C 2724.134 368.038, 2726.867 380.090, 2727.207 385.315 C 2727.321 387.067, 2727.658 382.200, 2727.957 374.500 L 2728.500 360.500 2933 360.500 C 3163.136 360.500, 3142.073 359.776, 3158.363 368.249 C 3172.741 375.727, 3184.237 389.579, 3189.282 405.500 C 3191.078 411.168, 3191.491 414.784, 3191.452 424.500 C 3191.410 434.859, 3191.044 437.503, 3188.773 443.835 C 3181.813 463.236, 3167.234 477.697, 3148 484.276 L 3141.500 486.500 2934.750 486.762 L 2728 487.023 2727.910 451.762 C 2727.825 418.104, 2727.756 416.864, 2726.405 424.500 C 2718.726 467.908, 2689.218 505.717, 2649.158 523.478 C 2580.765 553.802, 2501.522 523.029, 2471.779 454.595 C 2466.983 443.560, 2464.233 433.732, 2461.960 419.500 C 2460.843 412.503, 2460.167 409.999, 2460.102 412.619 C 2459.591 433.260, 2448.577 461.854, 2433.351 482.068 C 2406.546 517.654, 2365.950 536.620, 2320.638 534.726 C 2287.481 533.341, 2259.066 521.309, 2235.218 498.557 C 2223.107 487.003, 2214.296 475.222, 2207.504 461.500 C 2198.053 442.407, 2194.245 427.352, 2193.340 405.500 C 2192.409 383.030, 2196.684 363.307, 2206.995 342.500 C 2227.975 300.164, 2268.652 272.528, 2316.500 268.103 C 2321.515 267.639, 2323.577 267.210, 2321.157 267.135 C 2315.016 266.944, 2298.768 263.497, 2290.500 260.631 C 2254.411 248.122, 2225.115 220.795, 2210.406 185.917 C 2196.084 151.959, 2196.518 111.952, 2211.563 79.200 C 2231.822 35.096, 2274.597 4.671, 2321.418 1.062 C 2326.963 0.634, 2121.350 0.271, 1864.500 0.254 C 1472.158 0.228, 1399.434 0.434, 1409.597 1.544 C 1444.491 5.355, 1480.382 16.558, 1511 33.196 C 1519.853 38.006, 1540.228 51.733, 1550.343 59.701 C 1562.130 68.986, 1586.893 94.564, 1596.373 107.246 C 1630.720 153.196, 1648.942 205.433, 1650.703 263 C 1652.074 307.842, 1643.490 347.444, 1623.500 388.500 C 1593.271 450.584, 1538.246 500.112, 1473.532 523.486 C 1425.935 540.677, 1377.108 544.269, 1326.500 534.303 C 1313.397 531.723, 1289.864 524.684, 1280.506 520.545 L 1275.447 518.308 1273.646 508.904 C 1260.706 441.319, 1207.561 389.093, 1139.084 376.666 L 1132.657 375.500 1129.767 368.500 C 1123.744 353.908, 1115.868 323.544, 1113.684 306.500 C 1113.473 304.850, 1113.232 319.363, 1113.150 338.750 L 1113 374 1110.750 374.009 C 1104.084 374.034, 1085.102 376.231, 1076.905 377.927 C 1042.976 384.944, 1009.458 404.606, 986.431 431 C 974.103 445.130, 961.853 465.555, 955.993 481.750 C 954.750 485.188, 953.590 488, 953.417 488 C 952.018 488, 931.333 470.213, 922.500 461.413 C 880.954 420.024, 854.670 367.783, 845.315 308 C 843.894 298.920, 843.519 290.608, 843.535 268.500 C 843.551 244.047, 843.838 238.853, 845.802 227.500 C 855.902 169.106, 881.458 119.640, 922.977 78.121 C 967.518 33.580, 1030.370 5.114, 1094 0.664 C 1096.475 0.491, 983.525 0.321, 843 0.286 C 626.064 0.232, 589.326 0.422, 599.597 1.544 C 634.491 5.355, 670.382 16.558, 701 33.196 C 709.853 38.006, 730.228 51.733, 740.343 59.701 C 752.130 68.986, 776.893 94.564, 786.373 107.246 C 820.761 153.251, 838.804 205.004, 840.673 263 C 842.989 334.885, 816.241 404.228, 766.153 456.193 C 721.235 502.794, 663.126 531.534, 599.881 538.428 C 589.084 539.605, 610.431 539.792, 766.750 539.889 L 946 540 946 547.122 C 946 551.039, 946.690 558.888, 947.532 564.564 C 956.184 622.828, 995.808 672.505, 1050.835 694.074 C 1066.527 700.225, 1082.994 703.890, 1102.250 705.516 L 1110 706.171 1110 893.085 L 1110 1080 851.250 1080.199 C 708.938 1080.308, 595.875 1080.530, 600 1080.693 C 632.539 1081.975, 682.124 1090.159, 716.641 1099.946 C 825.804 1130.897, 920.763 1193.750, 991.691 1282 C 1032.509 1332.786, 1064.407 1391.864, 1084.291 1453.500 C 1099.951 1502.043, 1107.908 1548.042, 1110.627 1605.750 L 1111.298 1620 976.312 1620 L 841.327 1620 840.161 1603.750 C 837.301 1563.884, 828.929 1532.771, 811.940 1498.881 C 789.510 1454.136, 753.223 1414.842, 710.242 1388.757 C 673.151 1366.247, 628.505 1352.709, 583.585 1350.353 L 570.670 1349.675 571.346 1142.088 C 572.123 903.221, 572.243 0.910, 571.498 0.165 C 571.224 -0.109, 571 120.904, 571 269.083 L 571 538.500 556.803 537.789 C 519.125 535.901, 485.604 527.071, 451.074 509.940 C 401.396 485.294, 359.674 444.613, 333.135 394.945 C 321.182 372.573, 311.231 343.806, 306.518 318 C 303.193 299.789, 302.537 291.669, 302.560 269 C 302.586 243.864, 303.836 231.691, 308.570 210.500 C 333.574 98.556, 427.606 14.370, 541.500 1.961 C 557.046 0.267, 549.589 0.214, 278.750 0.109 L 0 0 0 1080 M 1113.081 117.250 L 1113.162 234.500 1115.094 223.500 C 1127.912 150.552, 1170.148 86.455, 1233.166 44.316 C 1266.801 21.825, 1310.766 6.094, 1352.500 1.617 C 1364.230 0.359, 1353.170 0.212, 1239.250 0.111 L 1113 0 1113.081 117.250 M 2345.500 1.037 C 2367.290 2.650, 2389.505 10.540, 2409.289 23.692 C 2425.218 34.281, 2442.354 53.696, 2451.798 71.853 C 2459.914 87.458, 2463.749 100.081, 2466.881 121.500 C 2467.663 126.845, 2467.772 127.051, 2467.879 123.381 C 2468.087 116.280, 2470.978 101.861, 2474.003 92.831 C 2478.278 80.071, 2482.151 72.068, 2489.415 60.981 C 2511.788 26.835, 2549.692 4.035, 2589 1.079 C 2594.783 0.644, 2540.206 0.291, 2467.500 0.293 C 2394.900 0.295, 2340 0.630, 2345.500 1.037 M 0.498 1080.500 C 0.498 1674.500, 0.611 1917.350, 0.750 1620.167 C 0.889 1322.984, 0.889 836.984, 0.750 540.167 C 0.611 243.350, 0.498 486.500, 0.498 1080.500 M 1651.457 35.251 C 1651.193 35.940, 1651.095 54.727, 1651.238 77.001 L 1651.500 117.500 1851.500 117.774 C 1982.194 117.953, 2054.445 117.696, 2060 117.033 C 2071.022 115.718, 2078.905 111.908, 2085.894 104.519 C 2095.062 94.825, 2099.179 82.332, 2097.180 70.270 C 2094.035 51.285, 2079.356 37.087, 2060.628 34.915 C 2056.708 34.460, 1963.148 34.068, 1852.719 34.044 C 1692.871 34.009, 1651.839 34.255, 1651.457 35.251 M 3427.749 159.751 L 3319 268.503 3427.750 377.168 L 3536.500 485.833 3645.496 377.413 L 3754.492 268.993 3645.495 159.996 L 3536.498 50.999 3427.749 159.751 M 2584.500 70.857 C 2562.500 77.499, 2547.041 91.869, 2539.701 112.500 C 2525.329 152.897, 2554.429 196.626, 2597.110 198.771 C 2610.333 199.435, 2618.601 197.815, 2630 192.325 C 2648.416 183.455, 2661.487 166.455, 2665.568 146.064 C 2669.832 124.760, 2663.017 103.720, 2646.598 87.500 C 2638.487 79.487, 2632.300 75.680, 2620.500 71.440 C 2613.056 68.766, 2592.528 68.433, 2584.500 70.857 M 1356.500 124.594 C 1321.371 130.806, 1288.343 150.141, 1266.435 177.321 C 1249.657 198.135, 1238.753 223.239, 1234.941 249.825 C 1233.230 261.763, 1234.265 288.928, 1236.880 300.725 C 1249.468 357.495, 1293.261 401.660, 1349.343 414.140 C 1362.676 417.107, 1389.871 417.805, 1404.533 415.555 C 1416.980 413.646, 1435.762 407.650, 1447.005 401.997 C 1469.850 390.511, 1492.191 370.286, 1506.198 348.409 C 1522.554 322.866, 1530.763 289.405, 1528.091 259.179 C 1524.793 221.878, 1510.925 191.842, 1485.045 165.949 C 1462.446 143.338, 1435.604 129.514, 1404.500 124.468 C 1393.147 122.626, 1367.244 122.694, 1356.500 124.594 M 1651 177.500 L 1651 219 1856.250 218.976 C 1988.040 218.960, 2063.036 218.597, 2065.791 217.961 C 2086.535 213.176, 2100.895 191.834, 2097.127 171.388 C 2093.896 153.850, 2080.730 140.142, 2064.114 137.014 C 2060.584 136.350, 1988.439 136, 1854.864 136 L 1651 136 1651 177.500 M 2467.103 144.119 C 2466.712 157.855, 2461.062 177.758, 2453.021 193.724 C 2436.662 226.207, 2408.185 250.641, 2374.160 261.390 C 2364.305 264.503, 2351.251 267, 2344.831 267 C 2341.786 267, 2340.120 267.385, 2340.500 268 C 2340.840 268.550, 2342.554 269.001, 2344.309 269.001 C 2346.064 269.002, 2352.164 270.132, 2357.864 271.513 C 2412.265 284.693, 2452.348 329.495, 2459.255 384.840 L 2460.545 395.180 2461.797 384.636 C 2468.973 324.219, 2517.325 276.563, 2579.500 268.628 C 2585.550 267.856, 2588.925 267.170, 2587 267.103 C 2582.865 266.960, 2564.629 262.891, 2557.500 260.521 C 2548.435 257.507, 2532.643 249.295, 2523.808 243 C 2519.027 239.595, 2510.903 232.464, 2505.753 227.154 C 2484.528 205.269, 2472.750 180.867, 2468.511 150 C 2467.793 144.775, 2467.160 142.129, 2467.103 144.119 M 3474.747 207.753 L 3414 268.506 3474.753 329.253 L 3535.506 390 3596.253 329.247 L 3657 268.494 3596.247 207.747 L 3535.494 147 3474.747 207.753 M 1367.113 184.128 C 1359.003 185.475, 1345.347 190.356, 1337.632 194.664 C 1323.365 202.632, 1306.863 221.397, 1300.699 236.664 C 1295.709 249.022, 1294.515 255.570, 1294.620 270 C 1294.696 280.453, 1295.205 285.306, 1296.875 291.500 C 1312.383 349.023, 1377.347 374.791, 1427.717 343.397 C 1444.901 332.687, 1457.629 315.979, 1464.585 295 C 1467.182 287.170, 1467.406 285.278, 1467.434 271 C 1467.461 257.778, 1467.128 254.324, 1465.174 247.500 C 1455.467 213.606, 1428.351 189.426, 1394 184.035 C 1386.340 182.833, 1374.670 182.873, 1367.113 184.128 M 153.294 202.917 C 128.560 208.236, 108.305 227.848, 101.972 252.609 C 99.575 261.982, 99.394 275.782, 101.549 285 C 105.858 303.439, 120.153 321.489, 137 329.762 C 148.931 335.621, 156.950 337.297, 170.500 336.765 C 189.104 336.035, 203.645 329.610, 216.500 316.439 C 231.820 300.742, 238.734 278.032, 234.610 256.954 C 229.393 230.291, 208.569 208.797, 182.334 202.996 C 171.577 200.618, 164.081 200.598, 153.294 202.917 M 2728 268.484 L 2728 332 2931.840 332 C 3129.937 332, 3135.893 331.946, 3143.226 330.070 C 3155.700 326.880, 3164.399 321.871, 3173.522 312.628 C 3193.222 292.667, 3197.416 266.043, 3184.954 240.054 C 3177.928 225.401, 3163.369 213.177, 3146 207.346 C 3140.734 205.578, 3131.732 205.489, 2934.250 205.234 L 2728 204.967 2728 268.484 M 1902 266.132 C 1846.780 268.540, 1790.104 290.341, 1745.408 326.365 C 1704.394 359.423, 1671.642 408.943, 1656.692 460.500 C 1651.507 478.381, 1650.847 484.503, 1651.193 511.500 L 1651.500 535.500 1918.750 535.752 L 2186 536.004 2185.999 529.752 C 2185.996 504.962, 2179.147 468.680, 2169.502 442.360 C 2164.818 429.577, 2151.713 402.961, 2144.462 391.502 C 2105.365 329.720, 2043.023 286.459, 1971 271.131 C 1951.030 266.881, 1926.153 265.079, 1902 266.132 M 2312.072 337.553 C 2298.264 340.547, 2282.678 350.371, 2274.397 361.298 C 2268.975 368.454, 2263.806 379.120, 2261.988 386.905 C 2260.285 394.200, 2260.547 410.140, 2262.492 417.500 C 2268.504 440.256, 2285.494 457.642, 2308.552 464.632 C 2317.593 467.373, 2335.307 467.119, 2344.500 464.116 C 2368.156 456.389, 2385.494 437.386, 2390.045 414.195 C 2391.709 405.712, 2390.760 389.209, 2388.187 381.908 C 2383.983 369.979, 2380.656 364.638, 2371.972 355.881 C 2365.003 348.854, 2361.839 346.495, 2354.834 343.105 C 2340.727 336.276, 2326.485 334.427, 2312.072 337.553 M 1094.660 438.048 C 1063.980 443.197, 1035.209 464.442, 1020.819 492.573 C 1007.189 519.218, 1005.532 547.480, 1015.930 575.971 C 1027.390 607.373, 1053.403 630.980, 1086.737 640.229 C 1093.361 642.067, 1097.140 642.383, 1112.500 642.383 C 1127.860 642.383, 1131.639 642.067, 1138.263 640.229 C 1167.874 632.013, 1191.696 612.551, 1205.255 585.500 C 1219.700 556.680, 1219.381 522.073, 1204.399 492.665 C 1199.406 482.863, 1195.864 477.916, 1187.655 469.274 C 1172.161 452.963, 1153.366 442.512, 1132.162 438.417 C 1124.284 436.896, 1102.784 436.684, 1094.660 438.048 M 294.500 537.721 C 234.892 539.605, 179.462 560.074, 133 597.360 C 121.957 606.222, 103.944 624.092, 94.557 635.500 C 59.458 678.153, 38.840 728.730, 34.020 784 C 33.409 791.001, 33.014 850.372, 33.009 935.750 L 33 1076 302 1076 L 571 1076 570.999 935.250 C 570.999 847.950, 570.613 790.323, 569.984 783.500 C 567.753 759.320, 562.337 734.770, 554.511 713.360 C 545.972 690.001, 527.789 657.845, 512.220 638.567 C 503.623 627.923, 483.702 607.808, 473 598.966 C 422.837 557.520, 359.174 535.677, 294.500 537.721 M 3284.066 542.500 C 3309.097 549.080, 3338.402 560.375, 3356 570.226 C 3392.122 590.446, 3413.687 606.606, 3441.049 633.957 C 3477.304 670.198, 3505.060 713.063, 3521.877 758.780 C 3526.282 770.757, 3533.287 794.663, 3534.468 801.750 C 3534.857 804.087, 3535.485 806, 3535.863 806 C 3536.240 806, 3537.343 802.144, 3538.313 797.431 C 3544.089 769.369, 3558.975 732.567, 3576.409 703.247 C 3603.421 657.816, 3644.893 614.601, 3688.428 586.518 C 3721.939 564.901, 3754.526 550.747, 3793 541.097 L 3804.500 538.213 3536 538.179 L 3267.500 538.146 3284.066 542.500 M 1622.148 541.569 C 1573.042 546.923, 1526.273 565.654, 1487.462 595.509 C 1438.120 633.467, 1403.958 685.326, 1388.986 745 C 1385.814 757.644, 1382.014 781.763, 1382.005 789.309 C 1382.002 792.259, 1381.613 793.879, 1381 793.500 C 1380.450 793.160, 1380 790.899, 1380 788.475 C 1380 782.442, 1377.294 763.411, 1374.885 752.500 C 1363.773 702.171, 1340.107 658.435, 1304.074 621.638 C 1291.727 609.030, 1270.254 590.413, 1269.234 591.432 C 1269.006 591.661, 1266.907 596.537, 1264.572 602.268 C 1246.272 647.170, 1208.824 681.897, 1162 697.385 C 1151.453 700.873, 1133.181 704.311, 1118.750 705.521 L 1111 706.171 1111 893.085 L 1111 1080 1116.750 1079.991 C 1119.912 1079.987, 1127.675 1079.532, 1134 1078.980 C 1186.728 1074.382, 1234.456 1055.543, 1278 1022.142 C 1290.639 1012.447, 1316.231 986.327, 1326.328 972.816 C 1357.485 931.125, 1375.188 885.370, 1380.039 834 C 1380.688 827.125, 1381.395 821.313, 1381.610 821.083 C 1381.824 820.854, 1382 823.419, 1382 826.782 C 1382 834.549, 1384.486 853.607, 1387.110 865.960 C 1398.333 918.788, 1425.136 966.859, 1464.645 1005.021 C 1510.785 1049.587, 1572.612 1076.297, 1637.250 1079.590 L 1651 1080.291 1651 1012.774 L 1651 945.258 1641.750 944.560 C 1609.429 942.120, 1581.238 929.579, 1557.946 907.279 C 1537.272 887.484, 1523.949 862.643, 1518.375 833.500 C 1515.786 819.959, 1516.004 796.506, 1518.843 783.250 C 1524.679 755.999, 1537.829 732.134, 1557.488 713.115 C 1580.409 690.941, 1609.643 677.871, 1641.750 675.442 L 1651 674.742 1651 607.371 L 1651 540 1642.750 540.111 C 1638.213 540.172, 1628.941 540.829, 1622.148 541.569 M 839.014 550.500 C 819.436 636.813, 758.719 719.417, 679.500 767.515 C 649.906 785.484, 611.499 801.286, 582.250 807.529 C 577.712 808.497, 574 809.635, 574 810.057 C 574 810.479, 575.913 811.143, 578.250 811.532 C 585.746 812.781, 609.849 819.914, 622.363 824.587 C 719.439 860.839, 800.408 945.676, 831.814 1044.046 C 834.401 1052.149, 836.793 1061.081, 840.505 1076.500 C 841.124 1079.070, 841.497 1078.188, 843.109 1070.338 C 850.928 1032.279, 871.617 986.928, 898 950.016 C 921.056 917.760, 955.003 884.422, 986.500 863.105 C 1022.229 838.925, 1057.089 823.137, 1095.314 813.826 C 1107.593 810.834, 1112.124 809, 1107.234 809 C 1102.920 809, 1077.072 801.689, 1062.966 796.478 C 999.853 773.167, 944.176 731.418, 902.604 676.229 C 875.074 639.683, 853.041 592.886, 843.635 550.982 L 841.282 540.500 839.014 550.500 M 3525.105 591.583 C 3502.276 597.721, 3487.277 620.560, 3490.831 643.769 C 3494.007 664.508, 3509.961 680.662, 3530.638 684.077 C 3558.479 688.675, 3585.259 665.311, 3584.942 636.701 C 3584.602 606.023, 3554.844 583.585, 3525.105 591.583 M 2052 598.341 C 2033.922 603.724, 2020.234 615.426, 2012.043 632.500 C 2007.097 642.809, 2005.597 649.383, 2005.653 660.500 C 2005.804 690.387, 2025.642 715.941, 2054.533 723.467 C 2061.375 725.249, 2076.562 725.479, 2084.201 723.916 C 2087.115 723.319, 2093.735 720.799, 2098.911 718.315 C 2131.679 702.590, 2144.492 662.576, 2127.289 629.700 C 2122.493 620.534, 2110.924 608.649, 2102 603.719 C 2087.655 595.795, 2067.742 593.653, 2052 598.341 M 1915.080 613 C 1903.489 658.460, 1880.648 699.480, 1848.153 733.193 C 1833.134 748.774, 1820.042 759.741, 1802 771.853 C 1778.695 787.498, 1754.082 798.930, 1728.262 806.101 C 1721.531 807.970, 1716.019 809.780, 1716.012 810.122 C 1716.006 810.464, 1717.688 811.015, 1719.750 811.345 C 1731.060 813.155, 1756.685 822.807, 1776 832.532 C 1832.738 861.099, 1880.644 913.933, 1904.273 974 C 1908.450 984.617, 1909.828 988.858, 1914.513 1005.500 L 1916.202 1011.500 1918.480 1002.500 C 1937.332 928.033, 1994.725 860.373, 2067 827.414 C 2080.654 821.187, 2105.109 812.646, 2112.808 811.415 C 2118.005 810.584, 2118.182 809.435, 2113.250 808.549 C 2100.306 806.224, 2073.492 796.329, 2055.966 787.410 C 2019.964 769.089, 1983.357 737.271, 1959.197 703.299 C 1940.958 677.654, 1927.490 649.550, 1919.520 620.500 L 1916.227 608.500 1915.080 613 M 2994.596 642.219 C 2987.009 670.593, 2971.330 701.003, 2951.622 725.569 C 2920.479 764.389, 2873.980 795.370, 2830.137 806.513 C 2824.987 807.822, 2820.606 809.061, 2820.400 809.267 C 2820.194 809.472, 2823.508 810.447, 2827.763 811.433 C 2838.658 813.957, 2857.291 821.054, 2871.184 827.970 C 2930.823 857.661, 2977.069 913.472, 2994.598 976.913 C 2997.315 986.744, 2997.521 987.135, 2998.292 983.913 C 2998.741 982.036, 3001.343 973.525, 3004.075 965 C 3027.131 893.053, 3091.637 831.885, 3165.500 811.929 C 3174.214 809.575, 3175.114 809.139, 3172.500 808.539 C 3147.822 802.871, 3121.265 791.272, 3099.155 776.506 C 3054.015 746.357, 3020.262 702.681, 3004.095 653.500 C 3001.293 644.975, 2998.993 637.213, 2998.985 636.250 C 2998.976 635.288, 2998.604 633.924, 2998.157 633.219 C 2997.646 632.415, 2996.322 635.763, 2994.596 642.219 M 1754.347 896.985 C 1727.085 904.132, 1707.858 927.758, 1706.319 956 C 1703.913 1000.165, 1745.545 1033.972, 1788 1022.327 C 1817.051 1014.358, 1837.761 985.743, 1835.692 956.430 C 1833.656 927.574, 1814.415 903.884, 1787.404 896.975 C 1777.459 894.432, 1764.071 894.436, 1754.347 896.985 M 3524 935.593 C 3498.672 942.321, 3483.125 967.865, 3489.489 992.297 C 3494.910 1013.109, 3511.330 1027.002, 3532.500 1028.689 C 3545.323 1029.711, 3557.489 1025.216, 3567.667 1015.695 C 3579.086 1005.013, 3584.661 989.239, 3582.221 974.515 C 3577.654 946.953, 3550.236 928.623, 3524 935.593 M 31 1295.933 L 31 1512.159 37.250 1511.610 C 40.688 1511.309, 47.325 1510.789, 52 1510.456 C 75.454 1508.786, 104.644 1500.325, 128 1488.426 C 191.013 1456.325, 233.927 1396.952, 244.675 1327 C 247.043 1311.587, 247.026 1281.918, 244.639 1266 C 240.077 1235.572, 229.554 1206.410, 214.506 1182.500 C 176.108 1121.484, 114.064 1084.673, 42.404 1080.388 L 31 1079.706 31 1295.933 M 301 1296 L 301 1512 304.250 1511.990 C 310.900 1511.969, 331.757 1509.880, 339.255 1508.484 C 407.007 1495.871, 464.157 1452.809, 494.464 1391.536 C 519.636 1340.644, 523.728 1283.125, 506.025 1229 C 495.266 1196.104, 478.521 1168.606, 454.509 1144.404 C 423.137 1112.784, 385.147 1092.400, 342 1084.036 C 330.132 1081.736, 315.286 1080.043, 306.750 1080.017 L 301 1080 301 1296 M 2460.671 1083 C 2460.375 1083.825, 2458.939 1089.398, 2457.480 1095.384 C 2453.138 1113.197, 2445.638 1134.383, 2437.261 1152.500 C 2411.937 1207.270, 2370.169 1257.488, 2320.438 1292.959 C 2287.418 1316.510, 2250.156 1334.428, 2213.006 1344.619 C 2206.128 1346.506, 2198.813 1348.321, 2196.750 1348.653 C 2194.688 1348.984, 2193 1349.545, 2193 1349.898 C 2193 1350.251, 2197.838 1351.607, 2203.750 1352.911 C 2232.006 1359.143, 2270.163 1375.052, 2298.500 1392.416 C 2364.055 1432.585, 2416.477 1494.433, 2444.359 1564.500 C 2449.726 1577.988, 2458.316 1605.870, 2459.624 1614.047 C 2459.971 1616.221, 2460.547 1618, 2460.903 1618 C 2461.258 1618, 2462.323 1614.243, 2463.268 1609.651 C 2465.322 1599.671, 2470.335 1583.084, 2475.311 1569.799 C 2499.104 1506.287, 2544.868 1447.286, 2601.659 1406.905 C 2637.793 1381.213, 2679.926 1361.762, 2718.747 1352.852 C 2724.382 1351.558, 2728.995 1350.220, 2728.997 1349.878 C 2728.998 1349.536, 2727.313 1348.985, 2725.250 1348.653 C 2723.188 1348.322, 2714.975 1346.254, 2707 1344.058 C 2651.938 1328.893, 2600.401 1298.310, 2556.933 1255.008 C 2511.229 1209.479, 2479.313 1154.114, 2464.484 1094.637 C 2462.682 1087.411, 2460.967 1082.175, 2460.671 1083 M 3779 1084.040 C 3746.090 1087.688, 3716.405 1096.531, 3687.685 1111.242 C 3638.165 1136.606, 3599.548 1173.986, 3572.694 1222.549 C 3534.974 1290.763, 3529.652 1377.026, 3558.660 1450 C 3572.731 1485.400, 3591.310 1513.364, 3619.471 1541.533 C 3643.099 1565.168, 3661.047 1578.058, 3690.500 1592.547 C 3724.620 1609.331, 3758.171 1618.103, 3794.250 1619.670 L 3809 1620.311 3809 1351.155 L 3809 1082 3802.250 1082.106 C 3798.537 1082.164, 3788.075 1083.034, 3779 1084.040 M 1356.921 1204.425 C 1303.167 1213.882, 1259.333 1250.906, 1241.611 1301.819 C 1235.907 1318.205, 1233.755 1331.068, 1233.799 1348.500 C 1233.870 1376.518, 1239.415 1398.696, 1252.049 1421.490 C 1259.201 1434.393, 1265.863 1443.027, 1277.922 1455.020 C 1299.746 1476.726, 1327.688 1490.962, 1357.467 1495.549 C 1371.074 1497.644, 1399.320 1497.095, 1411 1494.508 C 1454.115 1484.958, 1490.705 1457.395, 1511.414 1418.869 C 1530.121 1384.065, 1533.492 1341.064, 1520.506 1302.877 C 1503.617 1253.211, 1463.154 1217.228, 1411 1205.495 C 1400.868 1203.215, 1367.545 1202.556, 1356.921 1204.425 M 2449.798 1264.011 C 2414.674 1269.584, 2387.122 1294.286, 2377.868 1328.500 C 2374.849 1339.664, 2374.824 1357.992, 2377.813 1370.209 C 2388.275 1412.978, 2427.983 1440.903, 2471.448 1436.056 C 2518.565 1430.802, 2553.137 1388.337, 2548.088 1341.919 C 2544.056 1304.864, 2518.754 1275.132, 2483.500 1266.025 C 2474.325 1263.655, 2458.140 1262.688, 2449.798 1264.011 M 3391.184 1284.940 C 3365.989 1290.355, 3345.221 1310.615, 3339.491 1335.368 C 3337.471 1344.096, 3337.479 1359.679, 3339.507 1367.500 C 3347.422 1398.018, 3374.308 1419, 3405.500 1419 C 3436.843 1419, 3463.555 1398.375, 3471.549 1368 C 3473.809 1359.413, 3473.867 1343.578, 3471.670 1335 C 3465.090 1309.307, 3444.036 1289.499, 3418.073 1284.573 C 3407.664 1282.599, 3401.700 1282.680, 3391.184 1284.940 M 554.500 1458.101 C 528.333 1460.830, 499.877 1471.274, 478.740 1485.906 C 420.907 1525.940, 395.125 1598.937, 415.087 1666.130 C 430.119 1716.732, 469.175 1757.368, 518.642 1773.873 C 533.633 1778.875, 542.116 1780.612, 559.016 1782.138 C 596.242 1785.500, 637.619 1773.410, 668.500 1750.146 C 677.327 1743.496, 693.389 1727.588, 699.946 1719 C 724.431 1686.931, 736.435 1646.996, 733.060 1608.830 C 730.290 1577.506, 721.855 1553.174, 705.029 1527.979 C 697.328 1516.447, 675.119 1493.957, 663.760 1486.188 C 631.914 1464.407, 592.117 1454.176, 554.500 1458.101 M 1380 1623.938 C 1380 1627.887, 1370.937 1657.277, 1365.439 1671.159 C 1330.970 1758.184, 1262.417 1829.697, 1176.255 1868.512 C 1162.833 1874.559, 1133.167 1884.775, 1120.750 1887.627 C 1116.487 1888.606, 1113 1889.708, 1113 1890.076 C 1113 1890.443, 1114.754 1891.025, 1116.898 1891.368 C 1119.042 1891.711, 1126.805 1893.796, 1134.148 1896.003 C 1168.519 1906.329, 1198.567 1920.441, 1228.500 1940.314 C 1299.483 1987.441, 1352.504 2059.107, 1375.502 2139.008 C 1377.330 2145.359, 1379.140 2152.230, 1379.524 2154.278 C 1380.237 2158.078, 1382 2159.451, 1382 2156.205 C 1382 2150.548, 1392.288 2118.007, 1399.611 2100.500 C 1405.276 2086.955, 1415.747 2066.954, 1424.764 2052.452 C 1464.733 1988.169, 1525.055 1936.537, 1593.437 1908.077 C 1605.536 1903.041, 1634.431 1893.602, 1642.750 1891.968 C 1646.188 1891.292, 1649 1890.406, 1649 1889.998 C 1649 1889.590, 1647.246 1888.975, 1645.102 1888.632 C 1632.166 1886.564, 1598.486 1874.710, 1579 1865.368 C 1502.285 1828.589, 1442.858 1769.352, 1406.080 1693 C 1396.534 1673.183, 1385.453 1641.591, 1382.470 1625.691 C 1381.746 1621.830, 1380 1620.591, 1380 1623.938 M 1920.627 1623 C 1920.339 1623.825, 1918.970 1629.313, 1917.584 1635.195 C 1906.298 1683.108, 1879.580 1734.037, 1843.978 1775.500 C 1833.814 1787.338, 1809.870 1810.555, 1797.974 1820.108 C 1775.493 1838.162, 1746.275 1856.241, 1721.652 1867.334 C 1705.889 1874.435, 1681.374 1882.816, 1665.257 1886.615 C 1658.524 1888.202, 1653.011 1889.736, 1653.007 1890.025 C 1653.003 1890.313, 1656.938 1891.393, 1661.750 1892.423 C 1683.614 1897.105, 1712.882 1907.748, 1735 1919.059 C 1770.855 1937.395, 1800.287 1959.174, 1829.009 1988.623 C 1860.499 2020.910, 1883.060 2054.296, 1900.489 2094.400 C 1906.333 2107.847, 1915.008 2134.051, 1918.149 2147.747 C 1919.442 2153.382, 1920.736 2157.995, 1921.025 2157.997 C 1921.313 2157.998, 1922.328 2154.218, 1923.279 2149.596 C 1933.884 2098.075, 1964.529 2040.855, 2005.647 1995.798 C 2051.784 1945.241, 2115.801 1907.162, 2178.747 1892.833 C 2184.382 1891.550, 2188.995 1890.255, 2188.997 1889.955 C 2188.998 1889.656, 2185.063 1888.595, 2180.250 1887.599 C 2128.443 1876.870, 2069.375 1845.077, 2026.364 1804.769 C 1975.113 1756.738, 1941.070 1700.258, 1924.944 1636.500 C 1922.858 1628.250, 1920.915 1622.175, 1920.627 1623 M 872.615 1675.098 C 846.616 1677.840, 817.250 1686.840, 794 1699.193 C 727.104 1734.735, 684.079 1802.149, 679.402 1878.750 L 678.715 1890 894.858 1890 L 1111 1890 1110.997 1886.250 C 1110.995 1884.188, 1110.521 1877.325, 1109.943 1871 C 1104.693 1813.503, 1077.041 1760.571, 1033.368 1724.421 C 1010.409 1705.417, 987.805 1693.016, 959.735 1684.024 C 933.193 1675.522, 900.424 1672.165, 872.615 1675.098 M 1914 1825.050 C 1892.532 1827.014, 1872.177 1841.310, 1862.685 1861.089 C 1857.339 1872.229, 1856 1878.019, 1856 1890 C 1856 1901.981, 1857.339 1907.771, 1862.685 1918.911 C 1866.370 1926.589, 1868.627 1929.748, 1874.939 1936.061 C 1881.274 1942.396, 1884.383 1944.613, 1892.089 1948.291 C 1903.905 1953.932, 1908.971 1955.130, 1921 1955.130 C 1933.029 1955.130, 1938.095 1953.932, 1949.911 1948.291 C 1971.825 1937.830, 1986.073 1915.361, 1986.223 1891.027 C 1986.295 1879.344, 1984.634 1872.140, 1979.322 1861.089 C 1975.636 1853.419, 1973.366 1850.245, 1967.061 1843.939 C 1960.737 1837.615, 1957.603 1835.379, 1949.911 1831.697 C 1936.902 1825.471, 1927.806 1823.787, 1914 1825.050 M 1365 1826.563 C 1361.975 1827.350, 1355.675 1829.899, 1351 1832.226 C 1334.269 1840.554, 1321.601 1856.924, 1317.450 1875.578 C 1315.257 1885.438, 1315.883 1900.723, 1318.861 1910 C 1324.924 1928.891, 1340.166 1944.458, 1359.758 1951.770 C 1368.762 1955.131, 1386.379 1956.025, 1396.026 1953.610 C 1415.182 1948.816, 1431.079 1936.074, 1439.315 1918.911 C 1444.661 1907.771, 1446 1901.981, 1446 1890 C 1446 1878.170, 1444.668 1872.345, 1439.388 1861.088 C 1435.683 1853.190, 1433.715 1850.436, 1427.150 1843.967 C 1418.587 1835.530, 1407.751 1829.350, 1396.540 1826.510 C 1389.059 1824.615, 1372.378 1824.643, 1365 1826.563" stroke="none" fill="#ffffff" fill-rule="evenodd"/><path d="M 1094 0.664 C 1030.370 5.114, 967.518 33.580, 922.977 78.121 C 881.458 119.640, 855.902 169.106, 845.802 227.500 C 843.838 238.853, 843.551 244.047, 843.535 268.500 C 843.519 290.608, 843.894 298.920, 845.315 308 C 854.670 367.783, 880.954 420.024, 922.500 461.413 C 931.333 470.213, 952.018 488, 953.417 488 C 953.590 488, 954.750 485.188, 955.993 481.750 C 974.535 430.504, 1022.713 389.135, 1076.905 377.927 C 1085.102 376.231, 1104.084 374.034, 1110.750 374.009 L 1113 374 1113 187 L 1113 0 1105.750 0.175 C 1101.763 0.271, 1096.475 0.491, 1094 0.664 M 1651.457 35.251 C 1651.193 35.940, 1651.095 54.727, 1651.238 77.001 L 1651.500 117.500 1851.500 117.774 C 1982.194 117.953, 2054.445 117.696, 2060 117.033 C 2071.022 115.718, 2078.905 111.908, 2085.894 104.519 C 2095.062 94.825, 2099.179 82.332, 2097.180 70.270 C 2094.035 51.285, 2079.356 37.087, 2060.628 34.915 C 2056.708 34.460, 1963.148 34.068, 1852.719 34.044 C 1692.871 34.009, 1651.839 34.255, 1651.457 35.251 M 2728 113.514 L 2728 177.028 2933.750 176.764 L 3139.500 176.500 3146.500 174.152 C 3157.859 170.343, 3164.970 166.024, 3173.095 158 C 3190.342 140.969, 3196.094 117.029, 3188.595 93.500 C 3183.698 78.136, 3171.805 64.444, 3156.807 56.903 C 3142.195 49.556, 3157.893 50.037, 2931.750 50.017 L 2728 50 2728 113.514 M 3645 159.500 C 3704.673 219.175, 3753.722 268, 3753.997 268 C 3754.272 268, 3705.673 219.175, 3646 159.500 C 3586.327 99.825, 3537.278 51, 3537.003 51 C 3536.728 51, 3585.327 99.825, 3645 159.500 M 1651.239 177.750 L 1651.477 219.500 1651.750 178.252 L 1652.022 137.005 1856.761 136.750 L 2061.500 136.495 1856.250 136.248 L 1651 136 1651.239 177.750 M 153.294 202.917 C 128.560 208.236, 108.305 227.848, 101.972 252.609 C 99.575 261.982, 99.394 275.782, 101.549 285 C 105.858 303.439, 120.153 321.489, 137 329.762 C 148.931 335.621, 156.950 337.297, 170.500 336.765 C 189.104 336.035, 203.645 329.610, 216.500 316.439 C 231.820 300.742, 238.734 278.032, 234.610 256.954 C 229.393 230.291, 208.569 208.797, 182.334 202.996 C 171.577 200.618, 164.081 200.598, 153.294 202.917 M 2307.863 269.007 C 2279.824 273.449, 2254.437 285.877, 2234.848 304.751 C 2206.489 332.073, 2191.777 367.781, 2193.340 405.500 C 2194.245 427.352, 2198.053 442.407, 2207.504 461.500 C 2214.296 475.222, 2223.107 487.003, 2235.218 498.557 C 2259.066 521.309, 2287.481 533.341, 2320.638 534.726 C 2365.950 536.620, 2406.546 517.654, 2433.351 482.068 C 2458.431 448.773, 2466.706 406.709, 2455.954 367.166 C 2444.781 326.071, 2415.120 292.704, 2375.864 277.066 C 2360.776 271.056, 2349.251 268.873, 2330.500 268.475 C 2321.150 268.276, 2310.963 268.515, 2307.863 269.007 M 3427 377.500 C 3486.673 437.175, 3535.722 486, 3535.997 486 C 3536.272 486, 3487.673 437.175, 3428 377.500 C 3368.327 317.825, 3319.278 269, 3319.003 269 C 3318.728 269, 3367.327 317.825, 3427 377.500 M 2312.072 337.553 C 2298.264 340.547, 2282.678 350.371, 2274.397 361.298 C 2268.975 368.454, 2263.806 379.120, 2261.988 386.905 C 2260.285 394.200, 2260.547 410.140, 2262.492 417.500 C 2268.504 440.256, 2285.494 457.642, 2308.552 464.632 C 2317.593 467.373, 2335.307 467.119, 2344.500 464.116 C 2368.156 456.389, 2385.494 437.386, 2390.045 414.195 C 2391.709 405.712, 2390.760 389.209, 2388.187 381.908 C 2383.983 369.979, 2380.656 364.638, 2371.972 355.881 C 2365.003 348.854, 2361.839 346.495, 2354.834 343.105 C 2340.727 336.276, 2326.485 334.427, 2312.072 337.553 M 3609.497 413.250 L 3536.500 486.500 3609.750 413.503 C 3650.037 373.354, 3683 340.391, 3683 340.253 C 3683 340.114, 3682.886 340, 3682.747 340 C 3682.609 340, 3649.646 372.962, 3609.497 413.250 M 1094.660 438.048 C 1063.980 443.197, 1035.209 464.442, 1020.819 492.573 C 1007.189 519.218, 1005.532 547.480, 1015.930 575.971 C 1027.390 607.373, 1053.403 630.980, 1086.737 640.229 C 1093.361 642.067, 1097.140 642.383, 1112.500 642.383 C 1127.860 642.383, 1131.639 642.067, 1138.263 640.229 C 1167.874 632.013, 1191.696 612.551, 1205.255 585.500 C 1219.700 556.680, 1219.381 522.073, 1204.399 492.665 C 1199.406 482.863, 1195.864 477.916, 1187.655 469.274 C 1172.161 452.963, 1153.366 442.512, 1132.162 438.417 C 1124.284 436.896, 1102.784 436.684, 1094.660 438.048 M 572.488 810 C 572.488 991.727, 572.654 1036.113, 572.994 945.250 C 573.272 870.863, 573.272 749.138, 572.994 674.750 C 572.654 583.887, 572.488 628.273, 572.488 810 M 3524 935.593 C 3498.672 942.321, 3483.125 967.865, 3489.489 992.297 C 3494.910 1013.109, 3511.330 1027.002, 3532.500 1028.689 C 3545.323 1029.711, 3557.489 1025.216, 3567.667 1015.695 C 3579.086 1005.013, 3584.661 989.239, 3582.221 974.515 C 3577.654 946.953, 3550.236 928.623, 3524 935.593 M 1852.998 1147.250 L 1920.494 1215 1852.998 1282.750 L 1785.502 1350.500 1853.500 1282.750 L 1921.498 1215 1853.500 1147.250 L 1785.502 1079.500 1852.998 1147.250 M 2730.413 1086.750 C 2730.706 1090.463, 2731.204 1097.550, 2731.519 1102.500 C 2733.353 1131.322, 2742.799 1166.594, 2756.403 1195.424 C 2763.129 1209.678, 2773.665 1227, 2784.599 1241.781 C 2795.831 1256.965, 2821.509 1282.618, 2837.246 1294.376 C 2896.006 1338.282, 2967.088 1356.198, 3039.817 1345.435 C 3084.454 1338.830, 3127.471 1320.171, 3165 1291.138 C 3178.057 1281.037, 3203.416 1255.164, 3213.404 1241.754 C 3246.233 1197.678, 3264.481 1147.309, 3267.570 1092.250 L 3268.257 1080 2999.068 1080 L 2729.879 1080 2730.413 1086.750 M 3391.184 1284.940 C 3365.989 1290.355, 3345.221 1310.615, 3339.491 1335.368 C 3337.471 1344.096, 3337.479 1359.679, 3339.507 1367.500 C 3347.422 1398.018, 3374.308 1419, 3405.500 1419 C 3436.843 1419, 3463.555 1398.375, 3471.549 1368 C 3473.809 1359.413, 3473.867 1343.578, 3471.670 1335 C 3465.090 1309.307, 3444.036 1289.499, 3418.073 1284.573 C 3407.664 1282.599, 3401.700 1282.680, 3391.184 1284.940 M 3238 1619.685 C 3194.221 1622.194, 3144.112 1631.950, 3100.500 1646.454 C 3053.724 1662.010, 3014.759 1680.973, 2972.989 1708.510 C 2891.466 1762.251, 2826.838 1836.072, 2783.945 1924.445 C 2772.198 1948.648, 2765.968 1963.931, 2757.504 1989.315 C 2741.070 2038.602, 2731.978 2089.229, 2730.308 2140.750 L 2729.684 2160 2771.687 2160 L 2813.690 2160 2814.294 2142.250 C 2818.715 2012.090, 2880.210 1888.698, 2982.021 1805.696 C 3035.071 1762.446, 3095.532 1732.123, 3160.644 1716.109 C 3192.475 1708.281, 3221.460 1704.160, 3250.750 1703.297 L 3271 1702.701 3271 1660.851 L 3271 1619 3257.250 1619.185 C 3249.688 1619.287, 3241.025 1619.512, 3238 1619.685 M 31.387 1637.250 C 35.939 1752.560, 72.242 1855.294, 140.406 1945.760 C 168.741 1983.366, 207.914 2022.574, 245.508 2050.954 C 321.722 2108.491, 409.401 2143.886, 505.724 2156.003 C 521.803 2158.026, 549.788 2159.944, 563.750 2159.981 L 571 2160 571 2025.135 L 571 1890.271 558.250 1889.583 C 543.333 1888.778, 521.554 1885.803, 509.207 1882.884 C 487.174 1877.675, 454.906 1865.048, 437.533 1854.836 C 428.207 1849.355, 410.257 1837.071, 401.524 1830.193 C 390.002 1821.119, 365.127 1795.395, 355.653 1782.756 C 322.825 1738.963, 304.352 1687.893, 301.392 1632.750 L 300.708 1620 165.707 1620 L 30.706 1620 31.387 1637.250 M 1892 1621.610 C 1841.976 1627.060, 1795.407 1646.090, 1754 1678 C 1740.609 1688.320, 1716.050 1713.302, 1705.751 1727.081 C 1679.978 1761.563, 1662.990 1799.917, 1655.539 1840.447 C 1652.911 1854.741, 1651.009 1872.703, 1651.003 1883.269 L 1651 1890.038 1653.750 1889.409 C 1709.366 1876.692, 1754.550 1854.981, 1797.974 1820.108 C 1809.870 1810.555, 1833.814 1787.338, 1843.978 1775.500 C 1879.580 1734.037, 1906.298 1683.108, 1917.584 1635.195 C 1918.970 1629.313, 1920.339 1623.825, 1920.627 1623 C 1920.915 1622.175, 1922.858 1628.250, 1924.944 1636.500 C 1941.070 1700.258, 1975.113 1756.738, 2026.364 1804.769 C 2063.324 1839.407, 2109.963 1866.756, 2157 1881.376 C 2169.700 1885.323, 2190.158 1890.176, 2190.914 1889.420 C 2191.800 1888.534, 2188.996 1857.176, 2186.965 1845.260 C 2182.474 1818.909, 2175.393 1796.860, 2163.597 1772.500 C 2150.495 1745.440, 2135.800 1724.351, 2114.871 1702.569 C 2057.381 1642.738, 1974.478 1612.623, 1892 1621.610" stroke="none" fill="#0b8494" fill-rule="evenodd"/><path d="M 572 270 L 572 540 578.750 539.969 C 589.230 539.922, 616.227 536.489, 629.500 533.517 C 718.368 513.617, 791.542 450.080, 823.940 364.684 C 845.797 307.070, 846.540 240.904, 825.995 181.558 C 805.018 120.966, 763.590 70.658, 706.500 36.449 C 683.299 22.547, 649.731 10.141, 619.851 4.424 C 609.996 2.539, 586.294 0.024, 578.250 0.011 L 572 0 572 270 M 2589.500 1 C 2572.825 2.296, 2558.568 6.263, 2542.843 13.982 C 2528.143 21.198, 2519.572 27.352, 2507.360 39.457 C 2486.168 60.463, 2473.137 85.803, 2468.989 114.073 C 2466.994 127.667, 2468.174 152.963, 2471.402 165.797 C 2477.404 189.660, 2488.309 209.154, 2505.683 227.077 C 2526.443 248.494, 2550.289 260.834, 2581.129 266.123 C 2595.899 268.655, 2611.425 268.281, 2627.780 264.999 C 2670.304 256.463, 2706.962 226.766, 2724.130 186.944 L 2728.059 177.831 2727.779 133.166 L 2727.500 88.500 2722.402 77.939 C 2713.330 59.147, 2702.732 44.950, 2689.081 33.303 C 2660.459 8.881, 2627.145 -1.926, 2589.500 1 M 2594.137 69.157 C 2569.417 71.364, 2547.257 89.541, 2538.856 114.500 C 2536.868 120.407, 2536.506 123.452, 2536.538 134 C 2536.572 145.303, 2536.865 147.318, 2539.598 155.044 C 2546.563 174.737, 2562.261 190.186, 2581.500 196.282 C 2590.908 199.263, 2611.618 199.471, 2619.940 196.667 C 2631.979 192.612, 2638.280 188.742, 2647.119 179.974 C 2654.134 173.015, 2656.494 169.851, 2659.808 162.963 C 2667.371 147.244, 2668.744 131.179, 2663.882 115.291 C 2660.429 104.004, 2656.220 97.186, 2647.018 87.968 C 2632.195 73.122, 2615.651 67.237, 2594.137 69.157 M 2728 268.484 L 2728 332 2931.840 332 C 3129.937 332, 3135.893 331.946, 3143.226 330.070 C 3170.786 323.021, 3190.087 300.089, 3191.679 272.500 C 3193.374 243.149, 3176.231 218.338, 3147 207.835 L 3140.500 205.500 2934.250 205.234 L 2728 204.967 2728 268.484 M 1880.500 267.949 C 1861.431 270.727, 1848.729 273.727, 1830.539 279.747 C 1748.094 307.031, 1682.837 374.129, 1657.517 457.650 C 1651.705 476.822, 1651 482.501, 1651 510.110 L 1651 535 1918.500 535 L 2186 535 2185.999 529.250 C 2185.997 512.673, 2181.735 483.671, 2176.488 464.527 C 2171.603 446.705, 2166.959 434.710, 2157.502 415.500 C 2138.203 376.297, 2112.601 345.653, 2076.500 318.544 C 2045.503 295.268, 2008.732 278.980, 1968.010 270.488 C 1945.571 265.809, 1903.558 264.590, 1880.500 267.949 M 269.500 539.491 C 207.706 547.141, 152.073 575.030, 108.381 620.261 C 72.452 657.455, 47.652 704.933, 37.970 755.057 C 33.526 778.063, 33.647 773.593, 33.280 928.750 L 32.931 1076 302 1076 L 571.069 1076 570.747 928.250 C 570.429 782.632, 570.394 780.312, 568.279 767.500 C 562.038 729.698, 551.651 700.461, 533.462 669.500 C 521.226 648.674, 507.298 631.281, 487.659 612.305 C 448.489 574.460, 400.676 550.529, 345 540.903 C 329.003 538.138, 286.807 537.348, 269.500 539.491 M 2701.500 541.605 C 2669.195 545.040, 2639.420 553.882, 2608.336 569.270 C 2547.069 599.601, 2497.698 655.978, 2475.024 721.500 C 2464.071 753.152, 2460.099 778.901, 2460.679 814.500 C 2461.644 873.727, 2479.631 925.724, 2515.855 974 C 2525.983 987.497, 2547.521 1009.569, 2561.032 1020.299 C 2594.823 1047.131, 2636.958 1066.911, 2676.644 1074.572 C 2700.550 1079.187, 2689.313 1079.026, 2986.424 1079.005 C 3140.383 1078.994, 3266.474 1078.859, 3266.627 1078.706 C 3267.073 1078.260, 3267.097 1061.879, 3267.047 794.250 L 3267 540 2990.750 540.111 C 2763.172 540.203, 2712.210 540.466, 2701.500 541.605 M 3525.105 591.583 C 3502.201 597.742, 3487.067 621.016, 3490.895 644.194 C 3496.171 676.139, 3530.401 693.992, 3558.790 679.606 C 3574.081 671.858, 3585.118 653.894, 3584.942 637.040 C 3584.620 606.032, 3555.012 583.540, 3525.105 591.583 M 1268.370 592.637 C 1258.685 620.222, 1242.281 644.910, 1221.500 663.177 C 1199.268 682.720, 1172.345 696.347, 1145 701.898 C 1137.087 703.504, 1117.207 706, 1112.326 706 C 1111.229 706, 1111 738.351, 1111 893.141 L 1111 1080.282 1124.250 1079.583 C 1180.205 1076.630, 1229.172 1058.579, 1276 1023.643 C 1290.032 1013.174, 1315.748 987.047, 1327.199 971.625 C 1354.806 934.446, 1371.442 894.158, 1378.662 847 C 1380.869 832.579, 1381.155 793.659, 1379.167 778 C 1372.912 728.710, 1355.325 685.527, 1325.253 645.625 C 1312.748 629.031, 1289.839 606.572, 1270.262 591.714 C 1269.407 591.065, 1268.821 591.351, 1268.370 592.637 M 1915.060 613 C 1903.017 659.458, 1880.861 699.260, 1848.153 733.193 C 1833.140 748.769, 1820.048 759.736, 1802 771.857 C 1778.584 787.583, 1752.143 799.797, 1726.754 806.614 C 1720.843 808.201, 1716.005 809.780, 1716.004 810.122 C 1716.002 810.464, 1717.688 811.015, 1719.750 811.345 C 1725.653 812.290, 1745.573 818.809, 1756 823.209 C 1790.451 837.746, 1816.451 855.335, 1843.558 882.442 C 1877.354 916.238, 1899.124 952.588, 1912.060 996.826 C 1916.101 1010.647, 1917 1012.909, 1917 1009.258 C 1917 1005.662, 1923.703 983.936, 1928.501 971.982 C 1937.399 949.812, 1952.671 923.939, 1968.629 904 C 1977.389 893.056, 1999.101 871.350, 2010 862.640 C 2028.238 848.068, 2049.657 834.932, 2069.407 826.209 C 2081.012 821.083, 2101.820 813.825, 2110.296 811.946 C 2116.057 810.669, 2118.847 809, 2115.221 809 C 2111.877 809, 2090.519 802.329, 2078.319 797.474 C 2062.193 791.057, 2047.711 783.544, 2033.466 774.205 C 1977.171 737.298, 1936.522 682.465, 1919.520 620.500 L 1916.227 608.500 1915.060 613 M 2994.596 642.219 C 2983.232 684.723, 2956.318 726.794, 2921.073 757.151 C 2895.334 779.320, 2860.090 798.842, 2833.706 805.545 C 2830.293 806.412, 2825.700 807.595, 2823.500 808.174 L 2819.500 809.227 2831.500 812.551 C 2904.743 832.842, 2967.704 893.439, 2990.951 966.014 C 2993.855 975.081, 2996.565 983.625, 2996.972 985 C 2997.602 987.129, 2997.899 986.616, 2998.971 981.537 C 3001.152 971.209, 3008.900 950.059, 3015.173 937.307 C 3038.996 888.886, 3081.366 847.357, 3129.516 825.233 C 3142.927 819.072, 3155.457 814.500, 3165.820 811.990 C 3170.913 810.756, 3174.917 809.584, 3174.719 809.386 C 3174.521 809.188, 3169.993 807.918, 3164.656 806.565 C 3138.676 799.974, 3105.204 782.777, 3082 764.098 C 3054.037 741.588, 3030.441 712.321, 3015.415 681.511 C 3009.545 669.475, 2999.021 640.495, 2998.985 636.265 C 2998.976 635.294, 2998.604 633.924, 2998.157 633.219 C 2997.646 632.415, 2996.322 635.763, 2994.596 642.219 M 31 1295.822 L 31 1511.937 39.250 1511.430 C 72.110 1509.411, 99.771 1502.380, 125.888 1489.410 C 169.650 1467.676, 202.773 1434.559, 224.462 1390.852 C 260.609 1318.011, 252.124 1229.956, 202.746 1165.500 C 163.544 1114.326, 106.868 1084.242, 42.404 1080.388 L 31 1079.706 31 1295.822 M 571 1215 L 571 1350 577.750 1350.011 C 586.217 1350.024, 609.740 1352.490, 619.851 1354.424 C 651.340 1360.449, 684.270 1372.951, 710.242 1388.744 C 745.442 1410.147, 778.982 1443.290, 800.259 1477.695 C 824.579 1517.021, 837.663 1559.395, 840.572 1608.250 L 841.272 1620 976.276 1620 L 1111.281 1620 1110.605 1605.750 C 1107.854 1547.769, 1099.951 1502.041, 1084.291 1453.500 C 1050.295 1348.119, 983.615 1254.759, 894.500 1187.771 C 835.139 1143.149, 761.895 1109.234, 691 1093.541 C 652.875 1085.101, 611.221 1080.106, 578.250 1080.019 L 571 1080 571 1215 M 2437.731 1081.058 C 2375.988 1086.541, 2318.399 1112.744, 2274.125 1155.500 C 2223.946 1203.958, 2194.713 1267.962, 2191.340 1336.750 L 2190.690 1350 1920.699 1350 L 1650.708 1350 1651.415 1362.750 C 1656.294 1450.744, 1700.171 1527.065, 1774.235 1576.387 C 1817.762 1605.375, 1875.494 1621.582, 1928.316 1619.643 C 2001.660 1616.951, 2066.849 1587.906, 2116.468 1535.812 C 2157.251 1492.995, 2183.915 1435.627, 2189.118 1379.500 C 2190.566 1363.889, 2191.196 1362.571, 2192.097 1373.269 C 2195.965 1419.166, 2212.411 1464.884, 2238.763 1503 C 2249.417 1518.410, 2255.553 1525.691, 2270.431 1540.578 C 2309.161 1579.332, 2354.858 1603.813, 2409.279 1614.963 C 2420.608 1617.284, 2444.985 1620, 2454.491 1620 L 2461.038 1620 2460.427 1617.250 C 2448.827 1565.016, 2425.686 1517.153, 2390.926 1473.500 C 2379.247 1458.832, 2356.310 1435.442, 2341.806 1423.410 C 2300.757 1389.355, 2249.574 1363.277, 2203.253 1352.814 C 2197.618 1351.541, 2193.005 1350.253, 2193.003 1349.950 C 2193.002 1349.648, 2195.588 1348.866, 2198.750 1348.212 C 2228.319 1342.103, 2269.068 1325.500, 2298.281 1307.657 C 2343.216 1280.212, 2382.497 1242.308, 2411.402 1198.500 C 2422.471 1181.724, 2423.909 1179.245, 2432.305 1162.471 C 2443.834 1139.439, 2451.393 1119.250, 2457.565 1095.007 C 2459.454 1087.586, 2461 1081.173, 2461 1080.757 C 2461 1079.844, 2449.758 1079.990, 2437.731 1081.058 M 2969.500 1350.593 C 2929.257 1355.158, 2887.396 1370.171, 2854.360 1391.884 C 2805.416 1424.053, 2770.125 1466.930, 2749.077 1519.798 C 2738.060 1547.472, 2731.288 1579.833, 2730.724 1607.500 L 2730.500 1618.500 3000.250 1618.752 L 3270 1619.004 3269.997 1612.252 C 3269.991 1601.695, 3268.087 1583.730, 3265.456 1569.418 C 3246.007 1463.626, 3163.883 1378.606, 3058.500 1355.165 C 3031.236 1349.100, 2997.796 1347.382, 2969.500 1350.593 M 3513.500 1620.667 C 3460.760 1627.121, 3416.947 1644.333, 3377.333 1674.158 C 3365.202 1683.292, 3344.398 1703.284, 3333.273 1716.500 C 3320.870 1731.233, 3307.819 1751.385, 3298.947 1769.500 C 3287.319 1793.243, 3281.320 1810.635, 3276.422 1834.800 C 3271.081 1861.156, 3271.022 1863.114, 3271.011 2016.250 L 3271 2158 3540.040 2158 L 3809.081 2158 3808.745 2010.750 C 3808.410 1863.688, 3808.407 1863.482, 3806.164 1849.631 C 3798.637 1803.165, 3781.696 1762.803, 3754.374 1726.246 C 3742.473 1710.321, 3718.021 1685.959, 3701.815 1673.880 C 3662.175 1644.336, 3618.650 1626.891, 3571 1621.448 C 3559.740 1620.162, 3521.835 1619.647, 3513.500 1620.667 M 2192.403 1633.250 C 2195.670 1691.573, 2216.204 1745.505, 2252.043 1789.897 C 2261.638 1801.782, 2281.527 1821.575, 2293.500 1831.154 C 2370.112 1892.449, 2476.142 1907.092, 2566 1868.787 C 2600.062 1854.266, 2624.311 1837.750, 2651.531 1810.531 C 2673.045 1789.016, 2686.372 1771.402, 2698.840 1748 C 2717.831 1712.356, 2728.498 1674.055, 2730.618 1633.902 L 2731.299 1621 2461.508 1621 L 2191.717 1621 2192.403 1633.250 M 873 1675.069 C 836.472 1679.104, 801.767 1692.040, 772.468 1712.542 C 740.543 1734.881, 717.001 1762.347, 700.506 1796.500 C 688.043 1822.303, 679 1859.800, 679 1885.674 L 679 1890 895.143 1890 L 1111.286 1890 1110.593 1879.750 C 1107.102 1828.111, 1090.272 1786.160, 1057.937 1748.500 C 1026.249 1711.594, 980.640 1685.766, 932.394 1677.408 C 915.621 1674.502, 887.986 1673.414, 873 1675.069" stroke="none" fill="#f05a7e" fill-rule="evenodd"/><path d="M 3267 269 L 3267 538 3536.500 538 L 3806 538 3806 269 L 3806 0 3536.500 0 L 3267 0 3267 269 M 539.218 2.529 C 501.445 6.865, 463.293 20.207, 430.239 40.638 C 359.019 84.661, 313.042 157.600, 303.942 241 C 302.300 256.045, 302.551 286.135, 304.444 301.334 C 311.969 361.755, 338.273 416.059, 380.531 458.418 C 403.261 481.202, 424.033 496.102, 452.500 510.043 C 487.327 527.098, 519.977 535.650, 557.750 537.611 L 571 538.299 571 269.650 L 571 1 560.750 1.117 C 555.112 1.181, 545.423 1.817, 539.218 2.529 M 3427.500 160 L 3318.503 269 3427 377.500 C 3486.673 437.175, 3535.948 486, 3536.500 486 C 3537.810 486, 3754 269.806, 3754 268.497 C 3754 267.515, 3537.976 51, 3536.997 51 C 3536.722 51, 3487.448 100.050, 3427.500 160 M 1652 177.991 L 1652 219 1855.553 219 C 2083.147 219, 2067.545 219.491, 2078.792 211.980 C 2090.187 204.371, 2096.137 193.766, 2096.814 179.860 C 2097.272 170.439, 2095.783 164.056, 2091.330 156.356 C 2087.935 150.483, 2079.910 143.317, 2073.218 140.180 L 2067.500 137.500 1859.750 137.241 L 1652 136.981 1652 177.991 M 2578.766 269.013 C 2568.087 270.241, 2552.188 274.562, 2541.749 279.071 C 2491.218 300.900, 2459.098 351.402, 2461.340 405.500 C 2462.209 426.476, 2466.021 442.138, 2474.483 459.500 C 2493.121 497.736, 2527.174 523.911, 2569.433 532.484 C 2594.952 537.660, 2623.856 534.231, 2649.162 523.024 C 2664.482 516.239, 2675.707 508.415, 2688.562 495.561 C 2708.047 476.077, 2719.126 455.909, 2725.168 428.919 C 2728.145 415.621, 2728.361 391.566, 2725.628 377.626 C 2720.091 349.374, 2708.284 327.156, 2688.064 306.937 C 2669.223 288.098, 2647.815 276.506, 2621.584 270.939 C 2610.965 268.686, 2589.862 267.736, 2578.766 269.013 M 573 674.500 C 573 760.952, 573.347 809, 573.972 809 C 577.382 809, 607.832 800.334, 619.500 796.043 C 648.439 785.401, 684.624 765.544, 709.353 746.737 C 743.451 720.804, 776.207 684.597, 797.775 649 C 818.943 614.063, 830.938 584.170, 840.409 542.750 L 841.038 540 707.019 540 L 573 540 573 674.500 M 842 541.275 C 842 541.976, 843.316 547.941, 844.926 554.531 C 865.550 638.989, 921.260 715.166, 998.500 764.524 C 1024.704 781.268, 1063.396 798.034, 1092.851 805.407 C 1100.745 807.383, 1107.832 809, 1108.601 809 C 1109.781 809, 1110 800.950, 1110 757.500 L 1110 706 1104.878 706 C 1090.871 706, 1067.918 701.103, 1051 694.504 C 1029.264 686.026, 1011.897 674.723, 994.912 658 C 964.791 628.343, 949.008 593.357, 945.401 548.250 L 944.742 540 893.371 540 C 852.402 540, 842 540.258, 842 541.275 M 1639 540.649 C 1581.013 544.509, 1532.185 562.032, 1489.500 594.299 C 1430.121 639.186, 1392.585 703.938, 1383.526 777.111 C 1381.768 791.314, 1381.510 821.808, 1383.019 837.144 C 1392.059 929.045, 1448.743 1010.875, 1531.500 1051.491 C 1562.829 1066.866, 1597.035 1076.475, 1627.500 1078.457 C 1632.450 1078.779, 1639.763 1079.277, 1643.750 1079.563 L 1651 1080.083 1651 1012.687 L 1651 945.291 1641.250 944.730 C 1620.453 943.534, 1599.712 937.031, 1581.570 926.018 C 1548.983 906.237, 1526.306 874.063, 1518.475 836.500 C 1515.945 824.366, 1515.435 800.701, 1517.440 788.502 C 1527.556 726.954, 1579.901 679.095, 1641.250 675.301 L 1651 674.698 1651 607.349 L 1651 540 1647.250 540.175 C 1645.188 540.271, 1641.475 540.484, 1639 540.649 M 2191 809.420 L 2191 1079 2200.780 1079 C 2235.247 1079, 2277.014 1068.232, 2312.565 1050.181 C 2338.451 1037.037, 2357.939 1022.999, 2379.358 1002.066 C 2408.867 973.229, 2429.721 941.036, 2444.461 901.565 C 2456.057 870.515, 2462.559 826.823, 2460.097 796.500 C 2456.673 754.330, 2448.863 724.538, 2432.569 691.500 C 2423.126 672.354, 2418.253 664.343, 2406.410 648.500 C 2390.726 627.517, 2374.569 611.339, 2352.500 594.520 C 2337.789 583.309, 2326.140 576.088, 2310.500 568.486 C 2275.082 551.271, 2243.788 543.255, 2201.250 540.503 L 2191 539.840 2191 809.420 M 3503.906 811.566 C 3444.705 818.379, 3388.830 845.498, 3345.741 888.330 C 3309.351 924.502, 3284.520 969.360, 3272.579 1020.500 C 3269.503 1033.676, 3267.009 1054.394, 3267.005 1066.817 C 3267 1078.082, 3267.150 1079.090, 3268.750 1078.613 C 3269.713 1078.326, 3275.900 1076.741, 3282.500 1075.091 C 3329.124 1063.437, 3373.863 1040.651, 3414 1008.117 C 3427.940 996.818, 3455.448 969.199, 3466.405 955.500 C 3488.473 927.912, 3508.691 892.912, 3520.676 861.553 C 3526.458 846.423, 3535 816.551, 3535 811.461 C 3535 809.584, 3520.708 809.632, 3503.906 811.566 M 3537 811.325 C 3537 812.216, 3538.755 819.820, 3540.901 828.222 C 3557.804 894.429, 3597.339 956.411, 3653.252 1004.364 C 3686.490 1032.870, 3731.057 1057.671, 3771.347 1070.082 C 3786.072 1074.618, 3805.021 1079.312, 3805.733 1078.600 C 3806.408 1077.926, 3804.138 1051.229, 3802.409 1039.500 C 3787.757 940.127, 3718.212 856.698, 3622.835 824.074 C 3598.956 815.905, 3575.014 811.300, 3551.250 810.304 C 3538.538 809.771, 3537 809.881, 3537 811.325 M 573 945.500 L 573 1080 707.067 1080 C 834.276 1080, 841.109 1079.910, 840.631 1078.250 C 840.355 1077.287, 838.314 1069.446, 836.097 1060.825 C 807.790 950.755, 718.705 856.355, 609.197 820.387 C 599.392 817.166, 576.309 811, 574.058 811 C 573.319 811, 573 851.545, 573 945.500 M 1102.500 812.182 C 1065.761 821.143, 1035.370 833.530, 1004.129 852.277 C 925.025 899.745, 865.444 979.537, 844.541 1066 C 843.145 1071.775, 842.002 1077.287, 842.001 1078.250 C 842 1079.908, 849.047 1080, 976 1080 L 1110 1080 1110 945.500 C 1110 818.032, 1109.909 811.005, 1108.250 811.103 C 1107.287 811.160, 1104.700 811.646, 1102.500 812.182 M 1761.500 895.581 C 1743.915 899.820, 1736.038 903.888, 1725.915 913.956 C 1712.876 926.925, 1706.551 941.686, 1706.614 959 C 1706.655 970.237, 1708.095 976.991, 1712.474 986.500 C 1723.216 1009.825, 1745.309 1023.970, 1771 1023.970 C 1796.236 1023.970, 1817.968 1010.300, 1828.973 987.500 C 1849.100 945.804, 1819.752 897.108, 1773.500 895.456 C 1768 895.260, 1762.600 895.316, 1761.500 895.581 M 1718.499 1148.001 L 1651.504 1215.002 1718.752 1282.250 L 1786 1349.498 1853.248 1282.250 L 1920.496 1215.002 1853.501 1148.001 C 1816.653 1111.150, 1786.278 1081, 1786 1081 C 1785.722 1081, 1755.347 1111.150, 1718.499 1148.001 M 3777.218 1084.529 C 3730.079 1089.940, 3685.718 1107.942, 3646 1137.775 C 3630.943 1149.085, 3605.854 1174.196, 3594.749 1189.071 C 3565.233 1228.605, 3547.828 1272.187, 3541.862 1321.500 C 3540.293 1334.469, 3540.307 1368.712, 3541.888 1381.500 C 3554.806 1486.044, 3623.686 1571.788, 3721.725 1605.369 C 3745.683 1613.575, 3770.149 1618.282, 3795.750 1619.611 L 3809 1620.299 3809 1351.650 L 3809 1083 3798.750 1083.117 C 3793.113 1083.181, 3783.423 1083.817, 3777.218 1084.529 M 2444.500 1265.425 C 2417.182 1271.739, 2395.961 1288.349, 2384.357 1312.500 C 2377.710 1326.333, 2376.500 1332.033, 2376.500 1349.500 C 2376.500 1367.110, 2377.877 1373.609, 2384.589 1387.670 C 2395.727 1411.002, 2417.240 1428.214, 2442.583 1434.071 C 2450.691 1435.944, 2453.958 1436.182, 2465.277 1435.724 C 2479.604 1435.144, 2487.326 1433.376, 2498.635 1428.084 C 2522.448 1416.940, 2539.893 1395.343, 2546.116 1369.301 C 2547.890 1361.877, 2548.140 1358.466, 2547.708 1347.500 C 2547.034 1330.357, 2543.773 1318.603, 2536.233 1306.132 C 2524.651 1286.977, 2507.016 1273.248, 2486 1267.023 C 2476.380 1264.173, 2453.694 1263.300, 2444.500 1265.425 M 546 1459.524 C 475.742 1471.515, 422.710 1524.024, 410.844 1593.350 C 409.057 1603.789, 408.842 1608.106, 409.320 1624 C 409.714 1637.107, 410.479 1645.321, 411.944 1652.177 C 426.761 1721.533, 482.089 1772.675, 551.404 1781.084 C 564.728 1782.701, 590.576 1781.708, 602.802 1779.111 C 667.983 1765.264, 716.157 1717.190, 730.181 1652 C 733.118 1638.346, 733.771 1613.140, 731.576 1598.196 C 726.358 1562.681, 712.454 1533.657, 688.420 1508.108 C 663.969 1482.117, 632.131 1465.527, 595 1459.431 C 584.477 1457.703, 556.356 1457.756, 546 1459.524 M 1380.601 1624 C 1380.299 1624.825, 1379.606 1627.561, 1379.060 1630.081 C 1377.085 1639.194, 1370.729 1658.794, 1365.303 1672.500 C 1339.371 1738.003, 1291.199 1797.563, 1231.500 1837.936 C 1199.893 1859.311, 1170.023 1873.532, 1133.990 1884.360 C 1127.659 1886.263, 1120.797 1888.135, 1118.740 1888.521 C 1113.963 1889.417, 1113.968 1890.593, 1118.750 1891.446 C 1120.813 1891.814, 1127.900 1893.732, 1134.500 1895.708 C 1183.256 1910.306, 1227.337 1934.725, 1266 1968.552 C 1311.036 2007.955, 1347.040 2059.007, 1366.662 2111.284 C 1371.464 2124.077, 1378.358 2146.061, 1379.534 2152.331 C 1380.428 2157.093, 1381.585 2156.999, 1382.368 2152.102 C 1382.711 2149.958, 1384.737 2142.420, 1386.871 2135.352 C 1399.850 2092.361, 1421.944 2050.806, 1450.847 2015.026 C 1460.675 2002.860, 1483.671 1979.190, 1496.500 1968.035 C 1535.784 1933.879, 1581.139 1909.089, 1629.987 1895.073 C 1637.795 1892.833, 1644.817 1891, 1645.592 1891 C 1648.556 1891, 1646.825 1889.191, 1643.250 1888.554 C 1641.188 1888.186, 1634.100 1886.268, 1627.500 1884.292 C 1568.909 1866.749, 1518.750 1836.125, 1474.428 1790.835 C 1455.042 1771.026, 1445.355 1759.088, 1430.339 1736.500 C 1408.695 1703.943, 1393.433 1670.040, 1384.019 1633.607 C 1382.441 1627.498, 1380.903 1623.175, 1380.601 1624 M 3244 1732.657 C 3242.075 1732.842, 3235.325 1733.463, 3229 1734.037 C 3201.324 1736.546, 3164.594 1744.424, 3136 1753.983 C 3070.724 1775.806, 3013.578 1811.800, 2964.894 1861.754 C 2892.498 1936.040, 2849.719 2033.037, 2844.164 2135.500 C 2843.747 2143.200, 2843.583 2151.866, 2843.800 2154.757 L 2844.194 2160.015 2907.847 2159.757 L 2971.500 2159.500 2972.141 2143.500 C 2973.816 2101.726, 2985.423 2059.460, 3005.971 2020.318 C 3020.121 1993.366, 3036.466 1971.395, 3059.434 1948.456 C 3076.622 1931.290, 3085.541 1923.784, 3103 1911.789 C 3147.448 1881.253, 3202.868 1862.585, 3255.750 1860.336 L 3271 1859.687 3271 1795.843 L 3271 1732 3259.250 1732.160 C 3252.787 1732.248, 3245.925 1732.472, 3244 1732.657 M 1370 1824.953 C 1352.137 1828.342, 1333.673 1841.061, 1324.722 1856.141 C 1318.416 1866.767, 1315.721 1876.653, 1315.626 1889.500 C 1315.487 1908.380, 1321.068 1922.013, 1334.496 1935.598 C 1348.315 1949.579, 1362.384 1955.525, 1381.500 1955.463 C 1390.812 1955.433, 1393.747 1955.005, 1400.627 1952.673 C 1422.281 1945.332, 1436.873 1930.519, 1444.140 1908.500 C 1447.430 1898.534, 1447.440 1881.485, 1444.163 1871.598 C 1436.735 1849.186, 1421.928 1834.249, 1400 1827.048 C 1392.706 1824.653, 1377.265 1823.574, 1370 1824.953 M 1910 1825.691 C 1905.213 1826.492, 1897.458 1829.301, 1891 1832.573 C 1875.884 1840.230, 1864.579 1853.572, 1858.863 1870.500 C 1856.866 1876.417, 1856.506 1879.435, 1856.538 1890 C 1856.572 1901.303, 1856.865 1903.318, 1859.598 1911.044 C 1866.123 1929.492, 1879.322 1943.282, 1897.260 1950.392 C 1906.836 1954.188, 1914.084 1955.310, 1925 1954.687 C 1953.812 1953.042, 1978.681 1931.845, 1984.624 1903.865 C 1986.808 1893.584, 1986.019 1879.928, 1982.638 1869.500 C 1975.572 1847.704, 1955.680 1830.301, 1932.892 1825.979 C 1927.839 1825.021, 1914.969 1824.859, 1910 1825.691 M 2307.635 1891.135 C 2257.797 1897.535, 2213.418 1934.526, 2198.060 1982.470 C 2193.234 1997.536, 2191.626 2007.931, 2191.713 2023.500 C 2191.909 2058.431, 2203.089 2088.654, 2224.905 2113.230 C 2244.339 2135.122, 2266.551 2148.422, 2295.956 2155.774 C 2305.407 2158.137, 2308.418 2158.414, 2325 2158.447 C 2345.447 2158.488, 2353.341 2157.311, 2369.500 2151.816 C 2389.801 2144.911, 2405.171 2135.162, 2421.012 2119.142 C 2433.305 2106.710, 2439.670 2097.997, 2446.577 2084.148 C 2456.083 2065.084, 2460.379 2046.556, 2460.291 2025 C 2460.175 1996.790, 2452.372 1971.334, 2436.690 1948.015 C 2429.489 1937.306, 2411.386 1919.441, 2400.748 1912.545 C 2372.616 1894.308, 2340.474 1886.917, 2307.635 1891.135 M 866.264 1946.517 C 843.152 1950.130, 824.447 1955.573, 805.359 1964.240 C 766.560 1981.856, 732.208 2012.807, 709.511 2050.596 C 691.826 2080.041, 680.079 2119.931, 680.018 2150.750 L 680 2160 895.500 2160 C 1100.073 2160, 1111 2159.911, 1110.997 2158.250 C 1110.986 2152.774, 1108.652 2131.946, 1106.978 2122.384 C 1093.367 2044.656, 1037.356 1979.998, 962.349 1955.428 C 939.101 1947.812, 920.342 1944.985, 894 1945.125 C 883.275 1945.182, 870.794 1945.809, 866.264 1946.517" stroke="none" fill="#125b9a" fill-rule="evenodd"/><path d="M 1352.500 1.617 C 1262.179 11.306, 1182.516 66.159, 1140.604 147.522 C 1129.841 168.414, 1120.772 194.608, 1115.794 219.176 C 1113.635 229.835, 1113.500 232.789, 1113.500 269.500 C 1113.500 308.237, 1113.519 308.591, 1116.279 322 C 1119.412 337.225, 1125.451 358.042, 1129.767 368.500 L 1132.657 375.500 1139.084 376.666 C 1162.159 380.854, 1184.168 389.730, 1203.715 402.732 C 1239.300 426.400, 1265.452 466.105, 1273.646 508.904 L 1275.447 518.308 1280.506 520.545 C 1298.307 528.418, 1327.973 535.595, 1354.995 538.568 C 1414.006 545.060, 1479.373 528.774, 1529.641 495.057 C 1571.315 467.104, 1602.424 431.786, 1623.500 388.500 C 1643.490 347.444, 1652.074 307.842, 1650.703 263 C 1648.942 205.433, 1630.720 153.196, 1596.373 107.246 C 1586.893 94.564, 1562.130 68.986, 1550.343 59.701 C 1540.228 51.733, 1519.853 38.006, 1511 33.196 C 1492.719 23.262, 1463.360 11.927, 1444.500 7.523 C 1414.088 0.420, 1382.538 -1.605, 1352.500 1.617 M 2321.418 1.103 C 2274.842 4.504, 2231.828 35.084, 2211.563 79.200 C 2196.518 111.952, 2196.084 151.959, 2210.406 185.917 C 2225.441 221.567, 2256.412 249.882, 2293.020 261.447 C 2318.776 269.583, 2348.271 269.568, 2374.108 261.406 C 2420.970 246.602, 2457.137 205.235, 2465.389 157 C 2468.709 137.593, 2468.507 128.053, 2464.321 106.500 C 2459.402 81.176, 2445.178 55.865, 2425.162 36.817 C 2414.741 26.900, 2406.297 21.050, 2392.442 14.150 C 2370.588 3.267, 2348.170 -0.851, 2321.418 1.103 M 1356.500 124.594 C 1321.371 130.806, 1288.343 150.141, 1266.435 177.321 C 1249.657 198.135, 1238.753 223.239, 1234.941 249.825 C 1233.230 261.763, 1234.265 288.928, 1236.880 300.725 C 1249.468 357.495, 1293.261 401.660, 1349.343 414.140 C 1362.676 417.107, 1389.871 417.805, 1404.533 415.555 C 1416.980 413.646, 1435.762 407.650, 1447.005 401.997 C 1469.850 390.511, 1492.191 370.286, 1506.198 348.409 C 1522.554 322.866, 1530.763 289.405, 1528.091 259.179 C 1524.793 221.878, 1510.925 191.842, 1485.045 165.949 C 1462.446 143.338, 1435.604 129.514, 1404.500 124.468 C 1393.147 122.626, 1367.244 122.694, 1356.500 124.594 M 3474.747 207.753 L 3414 268.506 3474.753 329.253 L 3535.506 390 3596.253 329.247 L 3657 268.494 3596.247 207.747 L 3535.494 147 3474.747 207.753 M 1367.113 184.128 C 1359.003 185.475, 1345.347 190.356, 1337.632 194.664 C 1323.365 202.632, 1306.863 221.397, 1300.699 236.664 C 1295.709 249.022, 1294.515 255.570, 1294.620 270 C 1294.696 280.453, 1295.205 285.306, 1296.875 291.500 C 1312.383 349.023, 1377.347 374.791, 1427.717 343.397 C 1444.901 332.687, 1457.629 315.979, 1464.585 295 C 1467.182 287.170, 1467.406 285.278, 1467.434 271 C 1467.461 257.778, 1467.128 254.324, 1465.174 247.500 C 1455.467 213.606, 1428.351 189.426, 1394 184.035 C 1386.340 182.833, 1374.670 182.873, 1367.113 184.128 M 2728.692 360.641 C 2728.311 361.022, 2728 389.614, 2728 424.178 L 2728 487.023 2934.750 486.762 L 3141.500 486.500 3148 484.276 C 3167.234 477.697, 3181.813 463.236, 3188.773 443.835 C 3191.044 437.503, 3191.410 434.859, 3191.452 424.500 C 3191.491 414.784, 3191.078 411.168, 3189.282 405.500 C 3184.242 389.594, 3172.739 375.726, 3158.396 368.266 C 3142.083 359.781, 3163.951 360.563, 2933.942 360.238 C 2821.435 360.079, 2729.073 360.261, 2728.692 360.641 M 1785.250 535.750 C 1858.813 535.891, 1979.188 535.891, 2052.750 535.750 C 2126.313 535.608, 2066.125 535.493, 1919 535.493 C 1771.875 535.493, 1711.688 535.608, 1785.250 535.750 M 3266.751 549.761 C 3267.912 604.115, 3288.772 660.652, 3324.396 706 C 3333.149 717.142, 3361.092 744.466, 3372.364 752.906 C 3387.019 763.879, 3400.724 772.252, 3417.500 780.482 C 3443.028 793.006, 3465.019 800.025, 3493.500 804.742 C 3508.013 807.146, 3512.009 807.393, 3536.500 807.401 C 3559.694 807.408, 3565.403 807.097, 3577 805.190 C 3604.903 800.603, 3629.497 792.836, 3653.500 781.029 C 3683.522 766.262, 3706.167 749.829, 3729.522 725.863 C 3776.017 678.150, 3802.268 617.825, 3805.655 550.908 C 3806.294 538.278, 3806.245 537.786, 3804.410 538.342 C 3803.360 538.661, 3797.100 540.250, 3790.500 541.873 C 3711.569 561.290, 3639.461 611.690, 3590.299 681.803 C 3565.803 716.739, 3545.735 761.373, 3538.313 797.431 C 3537.343 802.144, 3536.240 806, 3535.863 806 C 3535.485 806, 3534.857 804.087, 3534.468 801.750 C 3533.287 794.663, 3526.282 770.757, 3521.877 758.780 C 3505.060 713.063, 3477.304 670.198, 3441.049 633.957 C 3413.687 606.606, 3392.122 590.446, 3356 570.226 C 3338.446 560.400, 3308.922 549.010, 3285.175 542.903 C 3276.554 540.686, 3268.825 538.680, 3268 538.446 C 3266.718 538.083, 3266.536 539.726, 3266.751 549.761 M 2052 598.341 C 2033.922 603.724, 2020.234 615.426, 2012.043 632.500 C 2007.097 642.809, 2005.597 649.383, 2005.653 660.500 C 2005.804 690.387, 2025.642 715.941, 2054.533 723.467 C 2061.375 725.249, 2076.562 725.479, 2084.201 723.916 C 2087.115 723.319, 2093.735 720.799, 2098.911 718.315 C 2131.679 702.590, 2144.492 662.576, 2127.289 629.700 C 2122.493 620.534, 2110.924 608.649, 2102 603.719 C 2087.655 595.795, 2067.742 593.653, 2052 598.341 M 301 1296 L 301 1512 304.250 1511.990 C 310.900 1511.969, 331.757 1509.880, 339.255 1508.484 C 407.007 1495.871, 464.157 1452.809, 494.464 1391.536 C 519.636 1340.644, 523.728 1283.125, 506.025 1229 C 495.266 1196.104, 478.521 1168.606, 454.509 1144.404 C 423.137 1112.784, 385.147 1092.400, 342 1084.036 C 330.132 1081.736, 315.286 1080.043, 306.750 1080.017 L 301 1080 301 1296 M 1361 1080.623 C 1349.599 1081.451, 1327.036 1085.275, 1314.500 1088.504 C 1277.061 1098.147, 1245.113 1113.822, 1214 1137.814 C 1204.022 1145.508, 1178.994 1170.265, 1170.341 1181 C 1140.383 1218.168, 1121.170 1262.631, 1113.303 1313 C 1110.587 1330.386, 1110.879 1369.378, 1113.871 1388.856 C 1122.714 1446.425, 1147.055 1495.917, 1186.802 1537.144 C 1244.767 1597.266, 1325.623 1626.945, 1408.241 1618.427 C 1512.659 1607.660, 1601.848 1537.194, 1635.973 1438.500 C 1652.137 1391.752, 1655.141 1343.335, 1644.944 1293.918 C 1636.685 1253.894, 1617.260 1213.148, 1590.635 1180 C 1582.109 1169.385, 1558.059 1145.606, 1548 1137.845 C 1509.140 1107.862, 1465.544 1089.368, 1417.500 1082.485 C 1406.829 1080.956, 1372.146 1079.813, 1361 1080.623 M 1989.002 1147.474 L 1921.504 1215.002 1989.004 1282.502 L 2056.504 1350.002 2123.944 1282.556 L 2191.384 1215.111 2123.942 1147.528 L 2056.500 1079.945 1989.002 1147.474 M 2461.371 1081.750 C 2461.649 1082.713, 2463.013 1088.308, 2464.403 1094.186 C 2483.155 1173.478, 2538.698 1251.406, 2610.500 1299.166 C 2634.646 1315.227, 2654.979 1325.778, 2680.529 1335.506 C 2692.168 1339.937, 2717.680 1347.438, 2725.250 1348.653 C 2727.313 1348.985, 2728.998 1349.536, 2728.997 1349.878 C 2728.995 1350.220, 2724.382 1351.558, 2718.747 1352.852 C 2654.510 1367.596, 2587.769 1408.321, 2541.574 1460.963 C 2502.713 1505.247, 2474.368 1558.809, 2463.497 1608.500 C 2462.654 1612.350, 2461.740 1616.511, 2461.465 1617.746 L 2460.964 1619.993 2326.732 1620.250 C 2252.904 1620.392, 2313.775 1620.508, 2462 1620.509 C 2633.115 1620.511, 2684.954 1620.327, 2604 1620.006 C 2491.360 1619.559, 2478.066 1619.349, 2489.939 1618.207 C 2539.217 1613.465, 2588.621 1593.087, 2629.298 1560.725 C 2695.696 1507.901, 2733.681 1426.106, 2730.641 1342.500 C 2728.518 1284.101, 2710.560 1233.215, 2675.589 1186.500 C 2665.286 1172.738, 2641.799 1148.729, 2628.724 1138.596 C 2593.255 1111.105, 2555.998 1093.904, 2512.721 1085.037 C 2501.368 1082.711, 2477.009 1080, 2467.461 1080 C 2461.653 1080, 2460.926 1080.209, 2461.371 1081.750 M 1356.921 1204.425 C 1303.167 1213.882, 1259.333 1250.906, 1241.611 1301.819 C 1235.907 1318.205, 1233.755 1331.068, 1233.799 1348.500 C 1233.870 1376.518, 1239.415 1398.696, 1252.049 1421.490 C 1259.201 1434.393, 1265.863 1443.027, 1277.922 1455.020 C 1299.746 1476.726, 1327.688 1490.962, 1357.467 1495.549 C 1371.074 1497.644, 1399.320 1497.095, 1411 1494.508 C 1454.115 1484.958, 1490.705 1457.395, 1511.414 1418.869 C 1530.121 1384.065, 1533.492 1341.064, 1520.506 1302.877 C 1503.617 1253.211, 1463.154 1217.228, 1411 1205.495 C 1400.868 1203.215, 1367.545 1202.556, 1356.921 1204.425 M 3252 1889.696 C 3248.975 1889.875, 3240.235 1890.948, 3232.577 1892.080 C 3151.937 1903.999, 3081.826 1950.823, 3039.542 2021 C 3017.073 2058.290, 3003.812 2102.178, 3001.392 2147.250 L 3000.708 2160 3092.725 2160 L 3184.742 2160 3185.435 2152.750 C 3187.027 2136.115, 3193.246 2120.082, 3203.253 2106.812 C 3217.264 2088.236, 3240.471 2075.562, 3264.601 2073.308 L 3271 2072.711 3271 1980.855 L 3271 1889 3264.250 1889.185 C 3260.537 1889.287, 3255.025 1889.517, 3252 1889.696 M 1651.386 1902.634 C 1655.990 1988.386, 1698.502 2064.451, 1768.854 2112.819 C 1815.737 2145.053, 1872.617 2161.732, 1928.500 2159.633 C 1970.223 2158.066, 2002.064 2150.240, 2038.500 2132.597 C 2067.101 2118.749, 2088.492 2103.549, 2111.072 2081.031 C 2150.963 2041.252, 2176.085 1993.931, 2186.475 1939 C 2188.560 1927.978, 2190.976 1905.360, 2190.989 1896.731 C 2191 1890.222, 2190.914 1889.982, 2188.750 1890.481 C 2163.408 1896.329, 2150.244 1900.287, 2133 1907.241 C 2050.204 1940.632, 1980.993 2007.109, 1943.765 2089 C 1934.336 2109.741, 1927.042 2131.317, 1923.279 2149.596 C 1922.328 2154.218, 1921.313 2157.998, 1921.025 2157.997 C 1920.736 2157.995, 1919.442 2153.382, 1918.149 2147.747 C 1913.286 2126.546, 1902.523 2097.078, 1891.762 2075.500 C 1886.259 2064.465, 1873.514 2043.392, 1865.484 2032.050 C 1842.600 1999.727, 1810.609 1967.741, 1778.889 1945.466 C 1743.042 1920.293, 1702.011 1901.550, 1664 1892.984 C 1658.775 1891.807, 1653.644 1890.601, 1652.597 1890.306 C 1650.773 1889.790, 1650.723 1890.297, 1651.386 1902.634 M 2572 1891.689 C 2561.623 1893.524, 2544.948 1898.994, 2536.008 1903.496 C 2517.446 1912.844, 2497.702 1929.781, 2485.854 1946.522 C 2456.835 1987.523, 2453.099 2041.321, 2476.153 2086.203 C 2495.610 2124.081, 2531.223 2150.280, 2572.926 2157.392 C 2585.178 2159.482, 2606.808 2159.483, 2619.074 2157.395 C 2673.763 2148.086, 2716.868 2105.845, 2728.664 2050 C 2731.131 2038.318, 2731.072 2013.177, 2728.547 2000 C 2720.479 1957.909, 2693.632 1922.344, 2655.500 1903.236 C 2646.522 1898.738, 2629.704 1893.354, 2619.074 1891.576 C 2607.198 1889.590, 2583.550 1889.647, 2572 1891.689" stroke="none" fill="#ffc300" fill-rule="evenodd"/></svg>